<?xml version="1.0" encoding="utf-8"?>
<!-- Generator: Adobe Illustrator 23.1.1, SVG Export Plug-In . SVG Version: 6.00 Build 0)  -->
<svg version="1.1" xmlns="http://www.w3.org/2000/svg" xmlns:xlink="http://www.w3.org/1999/xlink" x="0px" y="0px"
	 viewBox="0 0 1417.32 1417.32" style="enable-background:new 0 0 1417.32 1417.32;" xml:space="preserve">
<g id="Ebene_1">
</g>
<g id="Ebene_2">
	<path d="M1183.08,646.76c-10.28-27.12-10.61-59.96,1.5-86.46c-0.28-1.28-0.53-2.56-0.82-3.84c-9.68-42.78-28.16-84.1-53.37-119.33
		c-25.84-36.11-57.02-65.79-92.36-91.37c-19.52-14.13-40.15-26.15-61.51-36.59c-23.62,6.53-48.56,7.81-72.45,1.57
		c-28.55-7.45-52.75-25.06-71.84-47.86c-6.95-1.22-13.91-2.32-20.88-3.32c-7.59,3.72-15.32,7.11-23.25,9.93
		c-20.01,7.1-41.51,10.19-62.33,4.96c-16.91-4.24-32.05-13.35-45.64-24.53c-9.64-0.16-19.28-0.22-28.92-0.19
		c-7.98,4.99-16.18,9.56-24.69,13.55c-23.89,11.2-50.36,17.05-76.47,12.13c-7.1-1.34-13.93-3.47-20.51-6.22
		c-10.03,3.43-19.99,7.04-29.89,10.63c-23.48,8.52-47.24,16.32-70.16,26.41c-14.9,10.94-28.82,23.3-41.45,36.85
		c-29.11,31.24-51.7,68.17-68.71,107.96c1.29,4.06,2.25,8.23,2.81,12.48c1.86,14.31-1.82,28.69-9.93,40.25
		c-4.66,6.64-10.33,12.01-16.47,16.78c-3.21,12.29-5.99,24.69-8.35,37.13c1.85,1.5,3.58,3.16,5.14,5.01
		c15.38,18.17,2.6,42.13-9.08,58.11c-1.77,2.43-3.61,4.81-5.49,7.14c-2.14,24.48-3.25,49.05-3.67,73.63
		c1.87,2.58,3.59,5.27,5.1,8.11c8.78,16.48,9.07,36.09,0.91,52.83c-1.61,3.31-3.51,6.44-5.6,9.41c0.41,17.82,0.97,35.64,1.58,53.46
		c0.61,17.86,2.35,35.49,7.07,52.28c7.17,15.44,15.06,30.55,23.17,45.5c23.67,30.07,58.5,49.84,91.46,66.74
		c9.84-4.47,20.25-7.5,31.07-7.54c7.59-0.03,16.14,0.98,23.03,4.55c5.42,2.81,10.4,6.79,15,10.86c11.36,10.03,21.27,22.1,29.81,34.8
		c12.51,4.45,25.1,8.61,37.76,12.47c9.18,2.8,18.41,5.43,27.68,7.92c0.29-0.27,0.57-0.55,0.86-0.81
		c8.25-7.53,17.68-13.01,28.62-14.69c13.17-2.02,27.12,1.44,39.18,6.98c17.15,7.88,33.79,18.43,48.06,31.59
		c17.12,2.28,34.31,4.16,51.51,5.56c2.04-1.22,4.08-2.42,6.15-3.58c20.03-11.27,42.22-20,65.37-18.24
		c17.12,1.3,32.91,7.65,47.48,16.54c5.36-1.16,10.69-2.46,15.99-3.9c7.84-4.79,15.91-9.07,24.15-12.93
		c2.06-2.67,4.17-5.29,6.38-7.83c21.59-24.78,51.9-34.64,83.49-31.84c12.61-7.71,25.04-15.76,37.38-23.94
		c21.38-14.16,42.44-28.37,61.76-45.55c18.66-16.59,33.45-36.87,46.48-58.48c11.22-18.61,20.9-38.31,29.31-58.48
		c6.05-14.49,11.52-29.27,16.34-44.28c-1.79-2.13-3.43-4.4-4.88-6.83c-17.97-30.24,2.61-63.64,25.06-88.12
		c0.97-9.44,1.67-18.87,2.08-28.28C1188.94,660.05,1185.63,653.5,1183.08,646.76z M1124.44,676.95
		c-3.52,35.5-11.46,70.36-23.03,103.9c-6.4,17.38-13.72,34.54-22.1,51.08c3.82,9.08,5.88,18.92,5.69,29.09
		c-0.3,16.18-5.99,31.76-16.05,44.01c-10.88,13.25-26.05,20.33-42.29,23.3c-12.58,2.3-25.17,2.4-37.76,1.49
		c-7.21,4.74-14.46,9.39-21.64,14.06c-21.91,14.24-44.22,27.85-67.48,39.55c-23.07,10.93-47.02,19.67-71.9,24.79
		c-35.09,5.73-70.73,4.61-106.04,1.35c-61.07-6.33-121.68-18.21-180.47-36.86c-16.01-5.08-31.85-10.68-47.54-16.76
		c-20.35-8.19-40.4-17.21-60.02-27.18c-8.07-4.1-16.13-8.31-24.07-12.74c-18.65,2.04-37.97-1.49-52.66-13.09
		c-11.78-9.31-17.79-24.62-15.94-39.76c0.76-6.24,2.53-12.29,4.79-18.2c-1.13-10.73-1.36-21.56-1.7-32.35
		c-0.47-14.62-0.92-29.25-1.27-43.88c-0.69-29.53-0.95-59.07,0.01-88.59c0.49-15.06,1.32-30.11,2.54-45.12
		c4.28-45.13,12.62-89.76,27.34-132.44c10.06-27.09,22.71-53.08,38.38-77.08c-1.41-3.99-2.37-8.17-2.76-12.56
		c-2.13-23.87,13.59-46.62,34.52-54.87c10.61-4.18,22.38-4.1,32.88,0.5c0.35,0.16,0.69,0.33,1.04,0.5
		c7.99-5.35,16.26-10.25,24.78-14.66c16.2-7.56,33.1-13.29,50.51-16.91c14.67-2.3,29.51-3.02,44.33-1.99
		c6.65,0.84,13.26,2.01,19.81,3.56c8.7,2.06,18.66,0.35,26.17-4.68c1.32-0.88,2.62-1.92,3.87-3.08
		c40.34-0.26,80.68,0.67,120.89,4.41c50.68,5.37,101.11,15.47,149.07,33.83c31.82,12.99,62.3,29.52,90.41,49.9
		c0.45,0.35,0.9,0.7,1.35,1.05c7.89-4.45,16.47-7.43,25.63-8.49c22.34-2.57,47.53,7.89,57.76,29.89
		c9.37,20.15,1.85,39.79-10.95,55.09c7.49,11.52,14.25,23.54,20.17,36.05c9.35,21.72,16.15,44.49,20.53,67.84
		C1125.66,619.35,1126.54,648.24,1124.44,676.95z"/>
	<path d="M316.97,942.27c6.1-5.04,12.15-10.14,18.16-15.29c8.39-7.2,16.7-14.51,24.96-21.87c-1.01-0.7-2.01-1.42-2.98-2.19
		c-11.78-9.31-17.79-24.62-15.94-39.76c0.72-5.88,2.33-11.59,4.4-17.18c-3.66-1.19-7.47-1.71-11.42-1.56
		c-3.01,0.55-6.02,1.1-9.03,1.65c-5.72,1.94-10.62,5.21-14.7,9.81c-1.36,1.21-2.72,2.41-4.09,3.62
		c-7.44,6.49-14.94,12.9-22.52,19.22C293.94,900.38,305.45,921.42,316.97,942.27z"/>
	<path d="M1038.33,959.96c3.26,5.25,7.52,9.36,12.78,12.33c7.17,4.87,14.26,9.89,21.27,15.02c3.51,2.64,6.99,5.32,10.46,8.03
		c10.04-5.21,19.78-11.16,29.09-18.12c10.32-7.72,19.76-16.23,28.53-25.35c-10.6-8.56-21.4-16.82-32.34-24.94
		c-8.24-6.11-16.59-12.05-25.06-17.8c-4.03-2.45-8.32-3.69-12.87-3.72c-0.46-0.09-0.91-0.15-1.37-0.21
		c-8.73,10.56-20.2,17.17-32.75,20.89c-0.77,2.16-1.54,4.31-2.31,6.47c-1.37,6.4-1.11,12.74,0.78,19.01
		C1035.8,954.36,1037.07,957.16,1038.33,959.96z"/>
	<path d="M437.21,315.52c-2.94-2.93-5.89-5.86-8.83-8.79c-2.61,1.16-5.21,2.34-7.79,3.56c-19.15,9.07-37.6,19.95-54.57,32.95
		c0.83,0.82,1.66,1.65,2.48,2.47c7.49,7.45,14.98,14.9,22.47,22.35c3.24,3.36,7,5.67,11.3,6.94c4.16,2.07,8.59,2.92,13.29,2.54
		c1.06,0,2.09-0.07,3.11-0.19c6.19-8.62,14.71-15.49,24.33-19.28c0.63-0.25,1.27-0.48,1.91-0.7c2.44-5.34,3.57-11,3.34-16.98
		c-0.54-3.15-1.07-6.3-1.61-9.46C444.77,324.94,441.63,319.8,437.21,315.52z"/>
	<path d="M1106.58,382.5c-3.23,2.72-6.46,5.42-9.68,8.16c-3.89,2.41-6.96,5.61-9.21,9.6c-2.88,3.58-4.75,7.71-5.62,12.41
		c-0.42,1.63-0.68,3.26-0.82,4.89c4.17,4.04,7.68,8.83,10.24,14.35c2.84,6.1,4.12,12.16,4.18,18.06c3.62,2.7,7.64,4.6,12.06,5.71
		c3.04,0.3,6.09,0.6,9.13,0.91c6.16-0.27,11.84-2.14,17.04-5.59c4.73-4.02,9.47-8.01,14.22-12
		C1135.66,419.14,1121.73,400.24,1106.58,382.5z"/>
	<path d="M1172.26,482.24c-13.74-28.06-30.34-54.66-49.22-79.35c-0.92,0.84-1.81,1.73-2.66,2.69c-1.68,2.49-3.36,4.97-5.04,7.46
		c-2.86,5.7-4.17,11.78-3.92,18.24c0.16,10.55,1.82,20.73,3.61,31.1c1.26,7.28,3.05,14.46,5.38,21.45
		c1.16,3.46,2.44,6.88,3.85,10.24c2.57,6.12,5.29,12.21,8.3,18.11c3.3,6.47,7.07,12.68,11.3,18.54c4.07,5.64,8.44,11.06,12.96,16.3
		c2.7,3.13,5.55,6.13,8.52,8.99c2.38,1.77,4.76,3.54,7.14,5.31c3.22,1.96,6.61,3.13,10.17,3.55c0.89-2.25,1.85-4.47,2.91-6.64
		c3.45-7.06,7.71-13.45,12.54-19.33C1189.69,519.9,1181.38,500.87,1172.26,482.24z"/>
	<path d="M1078.65,352.42c-8.98-8.88-18.23-17.59-29.11-23.82c-10.7-6.13-22.16-10.51-33.8-14.2c-8.87-2.81-17.84-5.25-26.79-7.76
		c-1.48,2.64-2.53,5.53-3.11,8.67c-0.28,3.19-0.55,6.37-0.83,9.56c0.28,6.45,2.08,12.41,5.4,17.86c1.88,2.34,3.76,4.68,5.64,7.02
		c4.44,4.26,9.59,7.12,15.45,8.58c0.42,0.15,0.83,0.31,1.25,0.46c9.33,4.03,18.25,9.04,26.64,14.91c8,6.33,15.41,13.47,22.1,21.3
		c1.92,2.54,3.77,5.13,5.54,7.79c2.32,4.08,5.39,7.3,9.21,9.67c3.43,3.03,7.39,5,11.88,5.92c4.6,1.3,9.15,1.33,13.65,0.08
		c4.54-0.4,8.71-1.99,12.53-4.76c2.23-1.96,4.46-3.92,6.68-5.87c1.07-1.23,2.04-2.51,2.93-3.84
		C1110,385.7,1094.85,368.44,1078.65,352.42z"/>
	<path d="M980.82,1019.94c7.36,0.73,14.51,2.21,21.49,4.24c38.65-10.23,76.75-22.4,109.62-46.97
		c29.06-21.72,51.12-49.79,70.92-79.86c-10.33-7.95-17.44-20.86-19.18-34.63c-2.49-19.74,8.96-34.35,20.94-48.03
		c0-0.34,0.01-0.67,0.01-1.01c-0.54-3.15-1.07-6.3-1.61-9.46c-0.54-2-1.27-3.87-2.18-5.63c-5.36-4.14-10.17-8.99-13.9-14.77
		c-2.67-1.73-5.6-2.94-8.8-3.6c-3.04-0.3-6.09-0.6-9.13-0.91c-3.01,0.55-6.02,1.1-9.03,1.65c-4.4,1.29-8.18,3.58-11.35,6.88
		c-3.62,2.67-6.41,6.14-8.39,10.39c-8.08,13.89-14.09,28.97-22.29,42.79c-1.16,1.95-2.36,3.87-3.58,5.77
		c-2.98,4.18-6.11,8.24-9.36,12.18c0.01,0.67,0.03,1.34,0.01,2.02c-0.3,16.18-5.99,31.76-16.05,44.01
		c-10.88,13.25-26.05,20.33-42.29,23.3c-5.54,1.01-11.09,1.6-16.64,1.86c-1.22,1.09-2.45,2.18-3.66,3.28
		c-10.64,9.63-21.02,19.61-30.6,30.4c-5.38,6.06-10.49,12.37-15.24,18.97c-1.68,2.49-3.36,4.97-5.04,7.46
		c-1.03,2.89-2.06,5.79-3.09,8.68c-0.28,3.19-0.55,6.37-0.83,9.56c0.02,4.24,0.89,8.2,2.61,11.87
		C962.84,1019.18,971.79,1019.04,980.82,1019.94z M1071.48,969.07c-0.4,1.15-0.81,2.31-1.21,3.47c-0.32,0.95-0.62,1.92-0.85,2.9
		c-0.04,0.17-0.07,0.35-0.11,0.53c-1.71-0.18-3.43-0.36-5.15-0.53C1066.6,973.3,1069.04,971.18,1071.48,969.07z"/>
	<path d="M482.03,969.11c-1.56-4.38-4.07-8.12-7.53-11.22c-16.63-12.59-32.92-25.68-48.82-39.27c-1.71-1.46-3.41-2.96-5.11-4.43
		c-21.73,4.93-45.9,2.59-63.46-11.28c-11.78-9.31-17.79-24.62-15.94-39.76c1-8.14,3.7-15.97,6.98-23.57
		c-5.47-8.63-10.44-17.62-15.18-26.71c-8.74-16.77-17.12-33.75-25.64-50.63c-4.96-9.83-9.93-19.67-14.89-29.5
		c-1.88-2.34-3.76-4.68-5.64-7.02c-0.7-0.72-1.42-1.39-2.16-2.01c3.03,12.91,1.6,26.62-4.34,38.81
		c-5.84,11.99-15.22,21.68-25.47,29.77c3.01,13.04,5.81,26.14,9.94,38.85c14.94,45.95,39.62,88.07,62.61,129.99
		c6.56,11.95,13.47,23.6,20.99,34.71c1.09,0.08,2.18,0.15,3.26,0.24c9.2,1.05,18.36,2.49,27.46,4.28c1.52-0.97,3.04-1.93,4.59-2.85
		c13.83-8.31,29.14-15.07,45.36-15.13c7.59-0.03,16.14,0.98,23.03,4.55c5.42,2.81,10.4,6.79,15,10.86
		c3.54,3.12,6.91,6.46,10.17,9.94c1.74-1.96,3.21-4.2,4.37-6.72l3.09-8.68c0.28-3.19,0.55-6.37,0.83-9.56
		C485.51,977.84,484.34,973.29,482.03,969.11z M311.86,923.74c-0.06,0-0.12,0.01-0.19,0.01c1.28-1.69,2.43-3.51,3.44-5.47
		c0.67-1.88,1.34-3.76,2.01-5.64c3.37,3.72,6.82,7.36,10.35,10.92C322.27,923.47,317.06,923.52,311.86,923.74z"/>
	<path d="M554.32,276.13c-1.43-0.21-2.86-0.44-4.29-0.71c-7.1-1.34-13.93-3.47-20.51-6.22c-10.03,3.43-19.99,7.04-29.89,10.63
		c-26.53,9.63-53.43,18.32-79.04,30.46c-21.86,10.36-42.82,23.06-61.68,38.61c-23.41,19.3-42.29,43.01-57.04,69.47
		c9.62,13.24,18.09,28.48,20.26,45.16c1.86,14.31-1.82,28.69-9.93,40.25c-2,2.85-4.18,5.45-6.51,7.88c0.86,0.36,1.74,0.69,2.65,0.95
		c4.16,2.07,8.59,2.92,13.29,2.54c3.01-0.55,6.02-1.1,9.03-1.65c5.72-1.94,10.62-5.21,14.7-9.81c1.68-2.49,3.36-4.97,5.04-7.46
		c2.86-5.7,4.17-11.78,3.92-18.24c0.39-21.91,0.11-43.84-0.8-65.74c1.29-0.63,2.57-1.26,3.86-1.9c3.89-2.41,6.96-5.61,9.21-9.6
		c2.88-3.58,4.75-7.71,5.62-12.41c1.94-9.19,3.88-18.37,5.81-27.56c0.19-0.19,0.36-0.39,0.55-0.58c4.74-3.68,9.85-6.81,15.13-9.58
		c25.12-11.69,52.06-19.1,78.93-24.87c6.63-1.42,13.28-2.74,19.94-3.99c9.88-1.77,19.77-3.43,29.67-5.08
		c4.71-0.01,9.05-1.21,13.03-3.62c4.18-1.62,7.74-4.23,10.69-7.84c3.2-3.38,5.39-7.31,6.59-11.8c1.96-4.35,2.76-8.98,2.38-13.9
		C554.71,278.41,554.52,277.27,554.32,276.13z"/>
</g>
</svg>
