<?xml version="1.0" encoding="utf-8"?>
<!-- Generator: Adobe Illustrator 23.1.1, SVG Export Plug-In . SVG Version: 6.00 Build 0)  -->
<svg version="1.1" xmlns="http://www.w3.org/2000/svg" xmlns:xlink="http://www.w3.org/1999/xlink" x="0px" y="0px"
	 viewBox="0 0 1417.32 1417.32" style="enable-background:new 0 0 1417.32 1417.32;" xml:space="preserve">
<g id="Ebene_1">
	<path d="M905.01,323.09c18.35,11.3,37.82,21.17,57.69,29.66c-5.38-12.76-13.41-24.08-26.39-28.64
		C926.48,320.65,915.72,320.98,905.01,323.09z"/>
	<path d="M1091.21,439.5c-0.69-20.6-19.24-36.43-35.13-46.85c-2.94-1.93-5.95-3.77-8.99-5.54c3.76,7.36,7.9,14.53,12.66,21.52
		c9.36,13.75,19.55,27.21,30.56,39.92C1090.97,445.62,1091.31,442.61,1091.21,439.5z"/>
	<path d="M1173.17,560.53c-1.29-14-7.95-26.86-16.76-38.18c-1.7,12.36-2.4,24.89-2.11,37.46c0.13,5.61,0.74,11.06,1.94,16.54
		c1.19,5.42,2.32,10.92,3.66,16.37C1168.75,584.73,1174.44,574.24,1173.17,560.53z"/>
	<path d="M751.86,443.9c52.57,2.83,104.93,16.09,149.68,42.39c30.49,17.92,57.57,43.15,73.13,75.3
		c10.16,20.97,15.31,44.28,15.23,67.55c27.86-3.7,56.05-4.31,84.28-4.54c-15.61-13.34-28.88-30.05-32.47-49.95
		c-3.43-19,3.86-34.67,15.87-46.96c-1.21-2.2-2.48-4.37-3.89-6.45c-1.66-2.44-3.34-4.84-5.03-7.21
		c-23.83-5.28-49.85-14.06-67.18-32.05c-12.37-12.85-16.03-28.26-13.75-43.76c-3.06-2.06-6.15-4.06-9.26-6.01
		c-16.93,5.85-34.92,9.24-51.44,3.74c-20.61-6.86-32.07-25.79-39.46-45.56c-4.24-1.41-8.51-2.74-12.8-3.99
		c-18.48,12.92-37.79,23.64-61.93,19.58c-13.86-2.33-25.51-9.1-33.54-20.68c-0.32-0.46-0.6-0.93-0.9-1.39
		c0.03,6.37-0.09,12.74-0.45,19.13C757.21,415.76,755.77,430.36,751.86,443.9z"/>
	<path d="M474.1,640.39c2.92,0.25,5.91,0.55,8.9,0.94c-1.14-13.04-0.94-26.25,0.81-39.49c3.92-29.72,15.5-57.73,34.51-81
		c12.16-14.88,27.41-26.91,43.82-36.79c29.07-17.5,62.06-28.28,95.43-34.31c-3.8-14.58-4.52-30.4-4.63-45.27
		c-18.8-2.69-35.45-12.86-49.66-25.81c-7.15,1.59-14.19,3.43-21.17,5.51c-5.93,18.11-13.37,35.84-24.81,50.46
		c-9.43,12.05-23.8,19.83-39.41,18.04c-13.16-1.51-24.54-8.97-37.15-12.38c-0.24,0.23-0.48,0.46-0.71,0.69
		c-2,22.89-4.18,47.7-16.38,67.27c-11.14,17.86-29.56,25.63-49.17,28.52c-1.03,2.12-2.04,4.26-3.03,6.41
		c5.28,9.79,9.42,20.28,12.03,30.89c3.68,14.98,4.41,32.85-6.76,44.97c-6.8,7.38-16.12,9.41-25.63,9.27c0.06,1.4,0.14,2.8,0.24,4.21
		c0.2,2.54,0.42,5,0.67,7.42c10.05,0.62,20.23,0.25,30.1,0.06C439.42,639.67,456.82,638.94,474.1,640.39z"/>
	<path d="M683.03,860.98c-24.52-14.5-52.4-22.42-77.16-36.57c-25.91-14.82-49.5-33.26-68.41-56.48
		c-12.59-15.45-23.64-32.42-32.48-50.41c-35.76,1.2-71.96-2.97-107.78-2.14c-2.1,9.32-5.46,18.43-9.46,27.24
		c0.03,0.31,0.05,0.61,0.09,0.92c1.19,11.11,2.26,22.33,4.46,33.3c14.48,10.32,29.33,20.26,40.79,33.96
		c7.95,9.51,13.69,20.51,14.77,33c0.85,9.87-1.51,19.5-5.47,28.47c1.39,1.41,2.81,2.78,4.26,4.1c25.89,0.35,52.71,1.05,76.68,10.43
		c21.94,8.59,36.77,24.51,46.35,44.26c9.79,1.65,19.62,3.15,29.47,4.52c6.89-3.21,13.91-6.14,21.14-8.58
		c15.73-5.3,35.06-9.17,51.3-3.73c0.32,0.11,0.62,0.23,0.94,0.34c0.57-10.77,1.61-21.49,3.24-32.1
		C677.28,881.48,679.51,870.93,683.03,860.98z"/>
	<path d="M1040.75,695.4c-23.79,4.1-47.55,10.25-71.54,10.88c-20.73,38.92-53.54,71.8-88.38,97.76
		c-26.9,20.05-56.97,37.75-88.95,49.43c6.57,16.36,9.63,34.59,12.73,51.67c13.22,1.39,25.57,7.07,36.67,15.02
		c8.7-2.82,17.33-5.94,25.9-9.31c3.76-13.42,8.02-26.56,18.78-35.6c11.05-9.29,26.11-11.83,39.56-6.79
		c3.94,1.48,7.7,3.35,11.39,5.35c6.71-4.92,13.16-10.15,19.26-15.66c-1.31-33.02-1.57-66.65,21.7-92.84
		c15.34-17.26,36.34-16.88,57.4-16.8c4.57-8.31,8.92-16.72,13.03-25.25C1044.66,714.14,1041.79,704.77,1040.75,695.4z"/>
	<path d="M301.1,570.66c-8.08,11.09-2.2,27.06,3,38.07c1.98,4.2,4.24,8.29,6.71,12.26c4.31-18.95,6.58-38.47,4.79-57.59
		C309.71,564.21,304.33,566.22,301.1,570.66z"/>
	<path d="M355.2,428.17c-8.32,11.66-12.72,25.96-15.93,40.38c18.55-18.27,35.06-37.96,49.67-59.59
		C375.76,410.95,363.63,416.35,355.2,428.17z"/>
	<path d="M947.42,1013.63c4.09-4.7,6.84-10.57,9.03-16.66c-3.43,1.5-6.84,3.05-10.24,4.64c-10.62,4.98-21.1,10.79-31.17,17.3
		C925.98,1023.85,939.02,1023.29,947.42,1013.63z"/>
	<path d="M478.97,991.55c16.49,6.86,34.36,9.77,52.32,11.6c-8.11-7.29-16.7-13.9-26.4-19.19c-18.04-9.83-35.23-18.08-54.98-23.32
		c-2.08-0.55-4.18-1.08-6.27-1.62C451.24,973.2,462.56,984.72,478.97,991.55z"/>
	<path d="M625.12,1028.65c0.67,0.45,1.36,0.87,2.1,1.25c12.9,6.65,30.29,3.8,44,0.22c-5.67-0.99-11.34-1.95-17.01-2.86
		c-9.55-1.53-19.13-2.81-28.75-3.83C625.35,1025.18,625.24,1026.92,625.12,1028.65z"/>
	<path d="M1063.47,907.49c13.63,0.06,26.93-1.51,36.73-11.97c18.35-19.61,20.46-46.05,19.65-72.52
		c-20.29,21.42-36.39,46.45-51.68,71.55c-2.61,4.29-5.17,8.6-7.69,12.92C1061.48,907.48,1062.47,907.49,1063.47,907.49z"/>
	<path d="M851.78,305.71c-6.05-10.92-14.47-17.39-26.82-19.95c-16.24-3.37-30.6,2.2-43.94,10.31c11.66,3.01,23.45,5.49,35.34,7.45
		c12.44,2.06,24.83,3.97,37.24,5.53C852.99,307.93,852.39,306.82,851.78,305.71z"/>
	<path d="M301.43,847.77c2.03,10.53,8.66,19.24,16.25,26.5c6.81,6.52,14.36,12.1,22.13,17.38c-5.47-13.88-11.82-28.28-20.38-40.54
		c-5.16-7.38-10.74-15.01-16.88-22.11C300.83,835.08,300.2,841.4,301.43,847.77z"/>
	<path d="M625.52,296.56c9,2.21,18.04,4.28,27.1,6.26c2.16,0.47,4.31,0.91,6.46,1.32c-6.63-10.66-14.99-19.99-25.7-26.23
		C630.92,284.14,628.22,290.34,625.52,296.56z"/>
	<path d="M502.23,306.34c-14.12-3.58-26.49,3.27-34.44,14.78c-7.35,10.63-12.81,22.53-17.29,34.86c7.88-2.81,15.74-5.91,23.68-9.29
		c9.84-4.19,19.21-9.18,27.95-15.37c7.75-5.49,15.39-11.02,22.63-17C517.32,311.57,510.07,308.33,502.23,306.34z"/>
	<path d="M686.69,606.32c-9.61,9.01-17.79,23.52-20.98,36.25c-3.54,14.11,0.89,27.19,10.91,37.41c7.14,7.29,16.11,13.79,25.82,18.27
		c2.2-5.39,4.94-10.51,8.09-15.16c-0.11-1.02-0.24-2.04-0.33-3.06c-5.11-2.59-9.84-5.8-13.68-8.82
		c-6.54-5.13-13.27-11.53-12.25-20.57c1.01-8.94,6.77-18.23,12.02-25.35c11.39-15.45,33.89-11.49,48.68-2.95
		c13.93,8.04,23.36,24.38,18.4,40.57c-1.43,4.66-4.16,8.47-7.64,11.32c3.47,5.68,6.72,11.47,9.76,17.37
		c4.76-3.3,8.92-7.51,12.12-12.58c13.95-22.14,5.3-52.24-14.22-67.9C743.14,594.89,707.38,586.92,686.69,606.32z"/>
</g>
<g id="Ebene_2">
</g>
</svg>
