<?xml version="1.0" encoding="utf-8"?>
<!-- Generator: Adobe Illustrator 23.1.1, SVG Export Plug-In . SVG Version: 6.00 Build 0)  -->
<svg version="1.1" xmlns="http://www.w3.org/2000/svg" xmlns:xlink="http://www.w3.org/1999/xlink" x="0px" y="0px"
	 viewBox="0 0 1417.32 1417.32" style="enable-background:new 0 0 1417.32 1417.32;" xml:space="preserve">
<g id="Ebene_1">
</g>
<g id="Ebene_2">
	<path d="M338.48,730.45c22.53,1.41,45.14,1.28,67.65-0.52c16.5-1.32,33.07-3.24,49.32-6.35c15.43-2.95,29.3-8.91,43.69-15.35
		c4.3-1.92,8.45-4.1,12.36-6.73c9.03-6.07,17.91-12.68,25.75-20.26c10.64-10.29,19.69-22.65,27.36-35.28
		c9.54-15.72,15.96-33.09,24.19-49.49c10.61-21.14,23.27-41.19,37.66-59.95c-4.13,5.34-8.25,10.68-12.38,16.02
		c7.82-10.1,16.2-19.77,26.31-27.64c-5.34,4.13-10.68,8.25-16.02,12.38c5.47-4.13,11.28-7.55,17.58-10.27
		c-6.3,2.66-12.6,5.32-18.91,7.98c8.46-3.48,17.28-5.62,26.33-6.88c-7.01,0.94-14.03,1.88-21.04,2.83
		c13.13-1.69,26.32-1.57,39.44,0.17c-7.01-0.94-14.03-1.88-21.04-2.83c15.23,2.14,30,6.39,44.17,12.33
		c-6.3-2.66-12.6-5.32-18.91-7.98c16.3,6.97,31.56,16.05,45.62,26.84c-5.34-4.13-10.68-8.25-16.02-12.38
		c17.25,13.41,32.38,29.26,45.77,46.48c-4.13-5.34-8.25-10.68-12.38-16.02c15.2,19.72,28.09,41.1,39.45,63.24
		c5.65,11,10.41,22.48,16.23,33.38c1.3,2.44,2.71,4.84,4.29,7.11c4.41,6.36,9.38,12.57,14.27,18.56c1.07,1.31,2.17,2.59,3.38,3.78
		c8.34,8.24,18.36,16.17,29.23,21.05c11.44,5.14,22.71,10.08,34.85,13.07c6.73,1.66,13.51,3.13,20.31,4.5
		c20.35,4.1,40.93,6.85,61.51,9.42c27.89,3.48,56.04,4.84,84.13,4.07c38.12-1.05,76.39-5.84,113.77-13.24
		c10.3-2.45,19.27-7.17,26.92-14.17c8.62-5.58,15.41-12.98,20.39-22.21c5.78-9.08,8.91-18.89,9.39-29.43
		c2.36-10.52,1.88-21.04-1.41-31.56c-2.66-6.3-5.32-12.6-7.98-18.91c-7.04-11.89-16.5-21.36-28.39-28.39
		c-6.3-2.66-12.6-5.32-18.91-7.98c-14.03-3.77-28.05-3.77-42.08,0c-11.43,2.26-22.91,4.17-34.46,5.73
		c7.01-0.94,14.03-1.88,21.04-2.83c-48.74,6.45-98.18,6.45-146.92,0.02c7.01,0.94,14.03,1.88,21.04,2.83
		c-12.55-1.69-25.04-3.77-37.44-6.31c-11.27-2.3-22.87-4.48-33.59-8.78c6.3,2.66,12.6,5.32,18.91,7.98
		c-3.93-1.67-7.61-3.67-11.04-6.23c5.34,4.13,10.68,8.25,16.02,12.38c-2.67-2.14-5-4.54-7.12-7.22c4.13,5.34,8.25,10.68,12.38,16.02
		c-5.45-7.27-8.97-15.65-12.82-23.81c-3.83-8.12-7.81-16.17-12-24.11c-8.57-16.26-18.01-32.1-28.67-47.09
		c-14.17-19.93-29.39-39.67-47.04-56.71c-10.95-10.57-23.01-19.69-35.1-28.93c-7.39-5.65-15.07-10.89-23.11-15.57
		c-13.23-7.69-27.29-13.39-41.41-19.25c-8.32-3.46-16.81-6.43-25.55-8.67c-15.05-3.86-30.75-5.8-46.15-7.24
		c-8.69-0.81-17.46-0.89-26.16-0.16c-16.15,1.36-33.29,3.05-48.8,8.4c-14.5,5.01-29.43,11.01-41.84,20.29
		c-12.74,9.53-24.6,18.69-34.86,30.75c-10.06,11.82-19.47,24.26-28.45,36.92c-12.85,18.09-24.06,37.34-33.48,57.43
		c-8.08,17.24-15.07,35.23-26.67,50.52c4.13-5.34,8.25-10.68,12.38-16.02c-4.03,5.17-8.52,9.87-13.64,13.97
		c5.34-4.13,10.68-8.25,16.02-12.38c-5.46,4.2-11.39,7.56-17.72,10.27c6.3-2.66,12.6-5.32,18.91-7.98
		c-10.87,4.48-22.34,6.94-33.95,8.54c7.01-0.94,14.03-1.88,21.04-2.83c-28.29,3.73-57.13,4.16-85.59,2.38
		c-10.9-0.41-21.06,1.86-30.49,6.82c-9.81,3.19-18.3,8.65-25.47,16.37c-7.72,7.17-13.17,15.66-16.37,25.47
		c-4.96,9.43-7.23,19.6-6.82,30.49c0.94,7.01,1.88,14.03,2.83,21.04c3.76,13.41,10.55,25.05,20.35,34.93
		c5.34,4.13,10.68,8.25,16.02,12.38C310.88,726.8,324.2,730.4,338.48,730.45L338.48,730.45z"/>
</g>
</svg>
