<?xml version="1.0" encoding="utf-8"?>
<!-- Generator: Adobe Illustrator 23.1.1, SVG Export Plug-In . SVG Version: 6.00 Build 0)  -->
<svg version="1.1" id="Ebene_1" xmlns="http://www.w3.org/2000/svg" xmlns:xlink="http://www.w3.org/1999/xlink" x="0px" y="0px"
	 viewBox="0 0 619.3 631.7" style="enable-background:new 0 0 619.3 631.7;" xml:space="preserve">
<style type="text/css">
	.st0{fill:#020203;}
</style>
<g>
	<path class="st0" d="M175,554.2c-0.9-7.7-5.6-17.4,9.3-16.5c5.9,0.4,4.7-4.5,5-8.2c0.4-4.6-1.3-7.8-6.3-6.9
		c-19,3.2-28.6-3-24.5-23.6c0.3-1.7-0.3-5-1.1-5.2c-30.2-8.9-6.6-33-13.9-48.3L143,446c5.2,1.4,14.9-4.8,15,4.8
		c0.1,12.7,7.6,10.3,14.8,10.3c10.7,0,21.4-0.2,32.2-0.3c0.1,9,1.2,19-13.2,15.6c-22-5.1-17.8,10.3-17.9,22.5c0,5,0.5,8.6,7,8.4
		c5-0.2,9.1-0.6,8.3-7c-1.1-9,8.9-10.6,10-8c4.1,10.6,15.8,13,20.6,21.7c3.8,6.8,24.7,13.2,29.1,7.1c2.8-3.8,5.6-12.7-2.6-13.3
		c-20.5-1.4-9.2-16-10.3-24.2c-1.8-12.6,10-4.6,15.1-7.4c-2,11.1,0.3,18.1,13.9,15.8c5.5-0.9,11.2-0.3,16.8-0.4c0,5.3,0,10.6,0,15.9
		c-14.5-3.5-16,3.9-16.1,16.2c-0.1,11.7,3,14.8,14.7,14.7c12.3-0.1,19.7-1.6,16.2-16.1c13.1,2.9,18.3-2.2,15.4-15.4
		c8.2,0.1,16.6,1.1,24.7,0c8.5-1.1,23,7.6,22.4-12.4c-0.1-4.9,29.6-3.5,29.3,1.8c-0.6,14.3,8.5,10.8,16.2,10.6c0,5.3,0,10.6,0,15.9
		c-21.6-0.1-43.2,0.4-64.8-0.5c-10.3-0.4-13.1,3-12.5,12.8c0.5,8.3,4.8,20.6-12,18.5c-0.8-0.1-3,2.8-2.8,4
		c2.2,14.6-8.8,10.2-15.9,11.2c2.4-11.8-1.1-17.7-14.5-15.8c-7.5,1-15.2,0.1-22.9,0.2c-3.5,0.1-8.6-1.1-8.2,4.7
		c0.5,8.1-2.1,11.6-10.6,10.9c-5.7-0.5-4.7,4.4-5,8c-0.6,6.4,3,7.3,8.1,7.1c7.6-0.2,15.3-0.2,22.9-0.3c4,19.5-9.9,15.6-20.6,15.5
		c-6.2,0-11-0.1-10.6,8.6c0.4,8.3,5.7,6.7,10.4,6.8c12,0.2,24.1,0.2,36.1,0.3l-0.5-0.5c2.4,11.9-1.2,17.4-14.5,15.8
		c-15-1.8-34.9,6.2-43.8-3.2c-7.5-7.8-2.4-27.6-2.9-42c-0.2-8.3,3.1-17.6-12.1-17.3c-6.6,0.2-1.6-9.8-3.6-14.8
		c5.1-1,11.9,3.6,15.1-3c1.4-2.8,0.4-7.7-1.3-10.5c-1-1.6-5.9-2-8.6-1.3c-9.6,2.4-3.4,10.2-4.8,15.4c-10.2,0-20.4,0.1-30.6,0.1
		C174.4,553.6,175,554.2,175,554.2z"/>
	<path class="st0" d="M82.1,491.5c-5.3,0.2-10.6,0.4-15.9,0.6c-1-5.1,3.6-11.9-3-15.1c-2.8-1.4-7.7-0.5-10.5,1.3
		c-1.6,1-2,5.9-1.3,8.6c2.4,9.6,10.2,3.4,15.4,4.8c3.4,16.7-7.3,15-18.5,16c-14.9,1.3-12.5-7.8-12.5-16.4c0-10.1-0.2-20.2-0.3-30.3
		c5.2-1,11.9,3.6,15.1-3c1.4-2.8,0.5-7.7-1.3-10.5c-1-1.6-5.8-2-8.6-1.3c-9.6,2.4-3.4,10.1-4.8,15.4c-0.6,0-1.3-0.1-1.9-0.1
		c-29-0.5-29-0.5-29.1,28.3c0,3.2-0.2,6.4,0,9.6c0.3,5.2-1,8-7.2,8.2c-7.4,0.3-8.3-3.3-8.2-9.3c0.2-19.8,0.3-39.6-0.1-59.4
		c-0.1-7.1,2.9-8.6,9.1-8.4c8.3,0.4,16.6,0.1,24.9,0.1c3.2,0,6.6,0.5,9.4-0.7c4.6-1.9,2.9-9.5,2.5-9.6
		c-11.3-2.7-13.1-15.5-21.9-20.1c-3.7-2-9.4-0.6-8.5,6.2c1.1,8.5-3.8,9.6-10.4,8.7c-8.4-1.1-4.7-7.8-4.8-12
		c-0.5-11.5,0.8-23.1-0.4-34.5c-1.4-13.3,4-16.9,15.9-14.6l-0.5-0.5c1.1,7.1-3.4,17.7,11.2,16c5.7-0.7,4.4,5.1,4.3,8.5
		c-0.2,6.8,4.1,6.3,8.8,6.6c6.7,0.4,6.7-3.8,6.7-8.5c0-18.4,0-36.8,0-55.3c0-6.7-2.1-15,9.6-13.2c1.1,0.2,3.4-0.3,3.4-0.7
		c2.3-23.6,21.1-11.4,32.6-15c0,0-0.6-0.5-0.6-0.5c0.2,5.5,0.5,11.1,0.8,16.6l0.6-0.5c-17.2-2.1-22.4,14.5-29.8,23.3
		c-6.7,7.9,20.2,5.6,16,21.5c-0.6,2.3,9.1,0.4,13.8,1.8l-0.5-0.5c0,5.3,0,10.6,0,15.9l0.5-0.5c-10.7-1-17.8,0.9-15.9,14.6
		c1.4,10.5,0.4,21.3,0.5,32c-5.2,1-11.9-3.6-15.2,3c-1.4,2.8-0.5,7.7,1.3,10.5c1,1.6,5.8,2,8.6,1.3c9.6-2.4,3.4-10.1,4.8-15.4
		c5.3,0,10.6,0,15.9,0c-2.9,13.1,2.2,18.3,15.4,15.4c4,19.5-9.9,15.6-20.6,15.5c-6.2,0-11-0.1-10.6,8.6c0.4,8.3,5.7,6.7,10.4,6.8
		c12,0.2,24.1,0.2,36.1,0.3l-0.6-0.5c0.1,5.6-0.5,11.3,0.4,16.8c2.3,13.6-4.6,16-15.8,13.9l0.5,0.5c-2.8-5,5.6-14.9-7-15.7
		c-14.1-0.9-6.6,10.1-8.9,15.7L82.1,491.5z"/>
	<path class="st0" d="M158.9,277c2.4-13.9-4.2-17.3-17-16c-4.4,0.5-12,4.6-13.9-4.6c-1.8-8.6,2.4-10.9,10.4-10.7
		c7.2,0.1,4.7-6.3,4.6-10.1c-0.2-7.3-6.2-4.6-10-4.8c-10.5-0.6-24.9,4.3-20.2-15.7l-0.6,0.5c22.3-0.1,44.6-0.2,66.9-0.2
		c4.8,0,10.6-1.6,10.3,6.9c-0.2,4.9-0.6,7.7-6.9,8.8c-7.4,1.3-13.1,24.4-7.1,28.6c3.8,2.7,13.3,5.3,13.1-2.6
		c-0.4-14.6,9.2-10.2,16.4-11.3c-2.3,11.7,1.1,18.2,14.3,15.7c13.4-2.6,18.4,3,16.2,16.3c-0.8,5,0.6,10.2-0.3,15.2
		c-2.2,13.3,4.1,16.7,15.8,14.4c0,5.3,0,10.6,0,15.9c-5.3,1.8-14.8-6.1-15.6,6.5c-0.9,14,9.7,7,15.6,8.4c-2.1,5.8,4.9,17-9.3,15.6
		c-7-0.6-6.1,4.3-6.4,8.8c-0.5,6.8,4,6.6,8.6,6.5c7,0,14,0,21,0c31.5,0,31.5,0,32.2,31c-5.3-0.2-10.6-0.4-15.9-0.6l0.5,0.5
		c1.1-10.9-1.2-17.2-14.8-15.9c-15.6,1.5-31.5,0.5-47.2,0.6c0.1-15.8-0.9-31.6,0.6-47.2c1.3-13.7-5.1-15.8-16-14.8l0.5,0.5
		c-0.2-5.3-0.4-10.5-0.6-15.8c5.1-1,11.9,3.6,15.1-3c1.4-2.8,0.4-7.7-1.3-10.5c-1-1.6-5.9-2-8.6-1.3c-9.6,2.4-3.4,10.1-4.8,15.4
		c-17,3.6-16.9-19.2-30.9-20.2c2.2-14.4-8.6-10.1-15.8-11L158.9,277z"/>
	<path class="st0" d="M158.3,16c6.4-0.1,12.7-0.3,19.1-0.3c6.4,0,13.4,1.3,12-9c-0.7-5.1,2.4-6.6,6.9-6.3c3.6,0.2,8.8-0.8,8.1,4.9
		c-1.6,13.2,7.5,11.1,14.5,10.2c13.1-1.7,19.2,2.5,16.4,16.2c-2.7,13.4,4.4,16.3,15.6,15l-0.5-0.5c0.2,7.8,3.6,16.7-10.7,16.2
		c-7.7-0.3-5.4,9.4-3.7,11.8c4.7,6.5,12.8,2.3,19.4,2.8c3.6,0.3,10.8,2.8,10.2-4.2c-1-14.3,8.3-10.8,16-10.7l-0.5-0.5
		c0.1,11.4,0.5,22.9,0.1,34.3c-0.1,4.8,3.3,12-6.7,12.2c-6.8,0.1-9.2-2.3-8.5-8.8c0.8-6.6-3.5-6.8-8.4-6.8c-4.5,0-7.4,1.2-6.9,6.4
		c1.4,14.2-9.8,7.2-15.6,9.3c2.9-13.1-2.2-18.3-15.4-15.4c0.1-6.9,0.5-13.8,0.2-20.7c-0.2-3.7,2.4-10.6-4.6-9.9
		c-14.4,1.4-9.9-8.9-10.9-16c5.1-1,11.9,3.6,15.1-3c1.4-2.8,0.4-7.7-1.3-10.5c-1-1.6-5.9-2-8.6-1.3c-9.6,2.4-3.4,10.1-4.8,15.4
		c-11.6-2.3-18.1,0.8-15.7,14.1c2.2,12.4-1.4,19.5-15.6,16l0.5,0.5c2-12.6-3.3-17.9-15.9-15.9l0.5,0.5c0-5.3,0-10.6,0-15.9l-0.5,0.5
		c5-2.8,14.9,5.6,15.7-7c0.9-14-10.1-6.6-15.7-8.9l0.5,0.5c0-5.3,0-10.6,0-15.9L158.3,16z"/>
	<path class="st0" d="M373.9,614.4c-14,0.1-28-0.3-41.9,0.5c-8.4,0.5-21-6.1-20.9,12.3c0,4.5-13.4,5.2-13.4-1.6
		c-0.1-14.5-9.3-10.2-16.5-11.1l0.5,0.5c-2.3-11.7,0.9-17.5,14.3-16c5,0.5,15.5,4.8,15.4-4.2c0-14.4,9.2-10.1,16.3-11.1
		c0.2,13.1,16.1,22,27.6,15.5c3.5-2,2.7-5.2,2.9-8.2c0.3-4.6-1.4-7.1-6.3-6.9c-8.2,0.2-16.4,0.2-24.7,0.3c1-7.1-3.4-17.8,11-15.8
		c2.9,0.4,4.9-1.6,4.5-4.5c-2-14.3,8.7-10,15.8-11c-2.9,13.1,2.2,18.3,15.4,15.4c1.8,5.3-6.1,14.8,6.5,15.6c14,0.9,7-9.7,8.4-15.6
		c5.3,0,10.6,0,15.9,0c-2.2,11.6,0.9,17.9,14.3,15.8c5.5-0.9,11.5,0.6,17-0.3c13.4-2.1,16.5,4.2,14.3,15.8l0.5-0.5
		c-6.9,0.1-13.8,0-20.8,0.3c-3,0.1-8.5,0.7-8.6,1.5c-2.5,25.2-21.6,9.6-32.6,13.5l0.5,0.5c-2.8-5,5.6-14.8-7-15.7
		c-14-0.9-6.6,10.1-8.9,15.7L373.9,614.4z"/>
	<path class="st0" d="M112.8,215.1c-5.3,0-10.6,0-15.9,0l0.5,0.6c2-12.6-3.3-17.9-15.9-15.9l0.5,0.5c1.3-5.2-4.7-14.9,4.6-15
		c14.3-0.2,10.1-8.9,10.2-16.2c9.1,0.8,15.8,2,16.3-12.2c0.7-17.2-5.9-20.5-20.4-18.3c-3.7,0.6-7.5-0.1-11.3-0.2l0.6,0.5
		c-2.3-11.6,0.9-17.9,14.2-15.8c5.6,0.9,11.5-0.7,17,0.3c13.5,2.4,16-4.8,14.8-15.8l-0.6,0.5c5.3,0,10.6,0,15.9,0l-0.5-0.5
		c1.1,7.2-3.4,17.5,11.3,16.1c6.5-0.6,3.6,6.5,4.1,10.4c-11.8,1.7-12.8,16.7-22.1,19.3c-16.3,4.6-6.4,16.3-8,24.4
		c-2,9.8,7.1,6,11.9,6.7c3.1,0.4,6.4,0.3,9.6,0c6.3-0.6,9.2,1.4,9,8.4c-0.2,6.5-3.5,7.1-8.5,7c-7.7-0.1-15.5,0.9-22.9-0.2
		c-13.4-2-16.5,4.4-15.1,15.8C112.2,215.6,112.8,215.1,112.8,215.1z"/>
	<path class="st0" d="M96.9,323.1c3.2-0.1,6.4-0.7,9.4-0.2c15.8,2.3,25.1-1.5,21.7-20.2c-2.7-14.3,8.1-10.2,15.5-10.3l-0.5-0.5
		c0.1,8.3-0.6,16.6,0.4,24.8c2.1,16.2-2.1,25.2-20.7,21.7c-4.5-0.8-10.3-1.8-10.4,6.6c-0.1,6.7,2.2,9.4,8.7,8.6
		c6.6-0.8,6.9,3.5,6.8,8.4c-0.1,4.5-1.2,7.4-6.4,6.9c-14.2-1.1-7.6,9.4-8.8,15.6c-5.6-0.1-11.3-1-16.8-0.1
		c-13.6,2.2-16-4.6-13.9-15.8l-0.5,0.5c5-2.8,14.8,5.6,15.7-7c0.9-14-10.1-6.6-15.7-8.9l0.5,0.5c1.3-5.2-4.6-15.1,4.6-15
		c14.5,0.1,9.5-9.4,10.8-16.3L96.9,323.1z"/>
	<path class="st0" d="M174.2,568.3c-30.5,0.7-30.5,0.7-31.3,31.3l0.5-0.5c-11.5-1.4-17.5,1.8-16,15.2c0.6,5.1,6,15.3-6.7,15.8
		c-14.5,0.5-7.6-10.8-7.9-16.5c-1-15.9,0.3-32-0.6-47.9c-0.6-10.4,3.2-13,12.9-12.5c16.5,0.9,33.2,0.8,49.8,1.1c0,0-0.6-0.5-0.6-0.5
		c-0.2,5.1-0.5,10.2-0.7,15.2C173.6,568.9,174.2,568.3,174.2,568.3z"/>
	<path class="st0" d="M128.1,107.6c-5.4-1.8-16.6,6.1-15.1-6.7c0.9-8.1-10-23.2,10-23.9c5.9-0.2,4.6-4.9,4.7-8.4
		c0.1-3.2-0.1-6.9-4.5-6.6c-7.7,0.5-12.4-1.5-10.7-10.4c1.8-9.3,9-4.3,13.8-5c5.6-0.8,11.4,0,17.1,0.1l-0.5-0.5
		c-2,12.6,3.3,17.9,15.9,15.9l-0.5-0.5c-2,12.6,3.3,17.9,15.9,15.9l-0.5-0.5c0,5.3,0,10.6,0,15.9l0.5-0.5c-5,2.3-15-4.2-15,5.2
		c0,14.3-8.9,10-16.2,10.2l0.5,0.5c-2.8-5,5.6-14.8-7-15.7c-14.1-0.9-6.6,10.1-8.9,15.7L128.1,107.6z"/>
	<path class="st0" d="M603,152.9c0.2,15.8,0.5,31.5,0.8,47.3l0.5-0.5c-1.9,0.1-3.8,0.5-5.7,0.2c-17.1-2.4-30.2-0.5-25.4,22.2
		c0.7,3.4,0.8,6.9-4.6,8.6c-16.3,5.2-26-1.1-26-17.8c0-4.4,0.2-8.9,0.2-13.3l-0.5,0.5c12.6,2,17.9-3.3,15.9-15.9l-0.5,0.6
		c4.4-0.1,8.8-0.8,13.1-0.2c14.4,2.3,20.9-3.1,17.8-17.8c-2.8-13.5,5.6-13.8,15-13.4C603.6,153.5,603,152.9,603,152.9z"/>
	<path class="st0" d="M312.5,15.9C310.1,4.1,313.5-0.8,326.9,0c20.9,1.2,41.9,1.2,62.8,0c13.3-0.8,16.8,4.1,14.4,15.9l0.5-0.5
		c-31.4,0.7-31.4,0.7-30.7,31.3c-5.7-0.1-11.5,0.4-17.1-0.5c-4.7-0.8-12,4.3-13.8-4.9c-1.7-8.8,2.7-10.9,10.5-10.5
		c5.8,0.3,4.4-4.8,4.7-8.3c0.7-6.6-3.5-6.8-8.3-6.8c-12.7,0-25.4-0.1-38-0.2L312.5,15.9z"/>
	<path class="st0" d="M511.6,599c0.1,7.7,0,15.3,0.3,22.9c0.2,5.2-0.9,8.7-7.2,8.1c-3.7-0.3-8.6,0.5-8-5.2
		c1.5-13.2-7.8-10.3-14.8-10.1c-7.2,0.3-17.5-4.2-16.5,10.5c0.5,7.1-6.4,4.8-10.1,4.5c-6.6-0.5-14.7,3.6-19.5-2.7
		c-1.8-2.3-3.9-12.3,3.6-11.8c14.6,0.9,10.2-9,11.3-16.2l-0.5,0.5c7.5-0.1,15.1-0.1,22.6-0.3c3.5-0.1,8.7,1,8.1-4.7
		c-1.4-14.3,8.4-10.3,15.9-10.4l-0.5-0.5c-2,12.6,3.3,17.9,15.9,15.9C512.1,599.6,511.6,599,511.6,599z"/>
	<path class="st0" d="M603.7,215.1c1.1,7.1-3.3,18,11.2,15.9c4.5-0.6,4.3,3.6,4.3,6.6c0.1,10.8,4.5,26.6-0.9,31.5
		c-12,10.9-15.6,22-16.2,36.8c-0.1,3.5-9,1-13.9,1.4l0.5,0.5c-0.2-15.5-0.4-31.1-0.5-46.6c5.3-1.8,14.8,6.1,15.6-6.5
		c0.9-14.1-9.7-7-15.6-8.4c0.1-5.6,1-11.4,0.1-16.8c-2.2-13.6,4.7-16,15.8-13.9L603.7,215.1z"/>
	<path class="st0" d="M20.1,261.7c5.4,1.8,16.6-6.1,15.1,6.8c-0.9,7.9,9,21.1-8.4,23.7c-13.3,2-3.6,12.4-6.3,18.4
		c-1.9,4.4,3.2,12.1-6.9,12.4c-6.7,0.2-9.4-2-8.7-8.7c0.2-1.7-0.6-5-1.2-5.1c-24.5-2.7-10.9-21.5-13.9-33.1
		c-3.3-13,3.7-16.7,15.5-14.5l-0.6-0.5c2.8,5-5.6,14.9,7,15.7c14.1,0.9,6.6-10.1,8.9-15.7L20.1,261.7z"/>
	<path class="st0" d="M542.3,138.8c5.3,0,10.6,0,15.9,0l-0.5-0.5c1,7.1-3.3,17.8,11.1,15.8c4.4-0.6,4.6,3.3,4.5,6.5
		c-0.2,3.5,1.2,8.9-4.5,8.3c-14.4-1.6-10.1,8.8-11,15.9l0.5-0.6c-12.6-2-17.9,3.3-15.9,15.9l0.5-0.5c-5.3,0.2-10.6,0.4-15.9,0.5
		c0.2-15.5,0.4-31.1,0.5-46.6l-0.5,0.5c12.6,2,17.9-3.3,15.9-15.9L542.3,138.8z"/>
	<path class="st0" d="M51.3,153.6c-5.1,0.1-10.2,0.6-15.3,0.2c-16.5-1.5-25.8-22.8-45.2-16.9c-0.4-3-1-6-1.1-9.1
		c-0.1-4.4,3.3-4.7,6.5-4.7c21,0,42-0.2,63,0.1c12.7,0.2,5.1,10.1,6.8,15.5l0.6-0.5c-12.6-2-17.9,3.3-15.9,15.9L51.3,153.6z"/>
	<path class="st0" d="M450.1,31.3c10.4,0,20.8,0,31.2,0l-0.5-0.5c0,5.3,0,10.6,0,15.9l0.5-0.5c-12.6-2-17.9,3.3-15.9,15.9l0.5-0.5
		c-20.6,0.2-41.3,0.4-62,0.5c-1.2-11,1.2-18.2,14.8-15.8c5.5,1,11.5-0.7,17,0.3c13.5,2.4,16-4.8,14.8-15.8
		C450.7,30.8,450.1,31.3,450.1,31.3z"/>
	<path class="st0" d="M588.4,307.2c-2.2,13.6,3.9,17.4,16.8,16c4.7-0.5,13.3-5.1,14.3,6.2c0.8,8.5-4,8.2-10.3,9.1
		c-10,1.4-3.1,10.3-5.5,15.3l0.5-0.5c-5.2-1.3-14.9,4.7-15-4.6c-0.2-14.3-8.9-10.1-16.2-10.2c2.9-13.1-2.2-18.3-15.4-15.4
		c0-5.3,0-10.6,0-15.9c10.4,0.2,20.8,0.4,31.2,0.5L588.4,307.2z"/>
	<path class="st0" d="M542.3,584.2c10.7-0.1,21.5,0.8,32-0.5c13.5-1.6,16.3,4.5,14.1,15.9l0.5-0.5c-5.6,0.1-11.4,1.1-16.8,0.1
		c-13.8-2.5-15.4,5.3-14.5,15.8l0.5-0.5c-5.6,0.1-11.3-0.5-16.8,0.4c-13.6,2.3-16-4.6-13.9-15.8l-0.5,0.5c12.6,2,17.9-3.3,15.9-15.9
		L542.3,584.2z"/>
	<path class="st0" d="M126.7,537.3c-16.8,4.6-13.1-7-14.4-16.3c-2.3-15.7,7.6-12.9,17.2-14.2c15.8-2.1,13,7.6,14.2,17.2
		C145.4,539.4,136.9,539.3,126.7,537.3z"/>
	<path class="st0" d="M603.7,368.7c0,5.3,0,10.6,0,15.9l0.5-0.5c-15.5,0.2-31.1,0.4-46.6,0.5c0-5.3,0-10.6,0-15.9
		c15.5,0.2,31.1,0.4,46.6,0.5L603.7,368.7z"/>
	<path class="st0" d="M404,15.9c10.7-0.1,21.5,0.8,32-0.5c13.6-1.7,16.2,4.5,14.1,15.9l0.5-0.5c-10.7,0.1-21.5-0.8-32,0.5
		c-13.5,1.6-16.2-4.5-14.1-15.9L404,15.9z"/>
	<path class="st0" d="M588.3,614.4c2.3,11.5-0.8,16.5-14.2,16.1c-12.4-0.3-19.4-2-16-16.2l-0.5,0.5c10.4,0,20.8,0,31.2,0
		L588.3,614.4z"/>
	<path class="st0" d="M143.5,30.8c-8.2,0.1-16.4,0-24.5,0.3c-6.7,0.3-6.4-4-6.5-8.7c-0.1-4.7,1.7-6.9,6.5-6.8
		c8.2,0.2,16.4,0.2,24.5,0.3l-0.5-0.6c0,5.3,0,10.6,0,15.9L143.5,30.8z"/>
	<path class="st0" d="M603.7,460.8c-0.2,13.1-16.2,22-27.5,15.4c-3.5-2-2.7-5.2-2.9-8.2c-0.3-4.6,1.4-7.1,6.3-6.9
		c8.2,0.2,16.4,0.2,24.6,0.3L603.7,460.8z"/>
	<path class="st0" d="M588.3,430.1c2.1,11.2-0.3,18-13.9,15.8c-5.5-0.9-11.2-0.3-16.8-0.4l0.5,0.5c-0.2-5.3-0.4-10.6-0.5-15.9
		c10.4,0.2,20.8,0.4,31.3,0.5L588.3,430.1z"/>
	<path class="st0" d="M603.7,399.4c0.1,5.6-0.5,11.3,0.4,16.8c2.3,13.6-4.7,15.9-15.8,13.9l0.5,0.5c-0.1-5.6,0.5-11.3-0.4-16.8
		c-2.3-13.6,4.6-16,15.8-13.9L603.7,399.4z"/>
	<path class="st0" d="M97.4,277c0-5.3,0-10.6,0-15.9l-0.5,0.5c6,1.3,16.5-5.7,15.6,8.3c-0.8,12.6-10.2,4.7-15.6,6.4L97.4,277z"/>
	<path class="st0" d="M51.3,169.5c0-5.3,0-10.6,0-15.9l-0.5,0.6c5.3,0,10.6,0,15.9,0l-0.5-0.5c2.9,13.1-2.2,18.2-15.4,15.4
		L51.3,169.5z"/>
	<path class="st0" d="M603.8,138.8c5.4,1.8,15.4-6.2,15.5,6.9c0.2,14.5-10.2,6.4-16.3,7.3c0,0,0.6,0.5,0.6,0.5
		c0.2-5.1,0.5-10.1,0.8-15.2L603.8,138.8z"/>
	<path class="st0" d="M66.2,138.8c5.3,0,10.6,0,15.9,0l-0.6-0.5c0.2,5.3,0.3,10.6,0.5,15.9c-5.3-0.2-10.6-0.4-15.9-0.6l0.5,0.5
		c0-5.3,0-10.6,0-15.9L66.2,138.8z"/>
	<path class="st0" d="M604.3,138.3c-5.2-1.4-13,4.8-15.4-4.8c-0.7-2.7-0.3-7.6,1.3-8.6c2.8-1.7,7.7-2.6,10.5-1.3
		c6.6,3.3,2.1,10,3,15.1C603.8,138.8,604.3,138.3,604.3,138.3z"/>
	<path class="st0" d="M558.2,138.8c1.4-5.2-4.8-13,4.8-15.4c2.7-0.7,7.6-0.3,8.6,1.3c1.7,2.8,2.6,7.7,1.3,10.5
		c-3.3,6.6-10,2.1-15.2,3C557.6,138.3,558.2,138.8,558.2,138.8z"/>
	<path class="st0" d="M97.4,261.2c-5.2-1.4-13.1,4.8-15.4-4.8c-0.7-2.7-0.3-7.6,1.3-8.6c2.8-1.7,7.7-2.6,10.5-1.3
		c6.6,3.3,2.1,10,3,15.2C96.9,261.7,97.4,261.2,97.4,261.2z"/>
	<path class="st0" d="M480.8,61.5c2.9,13.2-2.3,18.2-15.4,15.4l0.5,0.5c0-5.3,0-10.6,0-15.9l-0.5,0.5c5.3,0,10.6,0,15.9,0
		L480.8,61.5z"/>
	<path class="st0" d="M604.2,461.4c1.4-5.2-4.8-13,4.8-15.4c2.7-0.7,7.6-0.3,8.6,1.3c1.7,2.8,2.6,7.7,1.3,10.5
		c-3.3,6.6-10,2.1-15.2,3L604.2,461.4z"/>
	<path class="st0" d="M480.8,46.7c6,1.4,16.5-5.7,15.6,8.4c-0.8,12.6-10.3,4.6-15.6,6.5l0.5,0.5c0-5.3,0-10.6,0-15.9L480.8,46.7z"/>
	<path class="st0" d="M604.3,522.8c0.2-5.5,0.4-11.1,0.7-16.6c0,0-0.5,0.6-0.5,0.6c5.6,2.2,16.5-4.2,14.9,9.4
		c-1.4,12.1-10.3,4.4-15.6,6.1L604.3,522.8z"/>
	<path class="st0" d="M603.7,522.2c-1.4,5.2,4.8,13-4.8,15.4c-2.7,0.7-7.6,0.3-8.6-1.3c-1.7-2.8-2.6-7.7-1.3-10.5
		c3.3-6.6,10-2.1,15.2-3C604.3,522.8,603.7,522.2,603.7,522.2z"/>
	<path class="st0" d="M481.4,31.3c0-5.3,0-10.6,0-15.9l-0.5,0.5c5.3,1.8,14.8-6.2,15.6,6.5c0.9,14-9.7,6.9-15.6,8.4
		C480.9,30.8,481.4,31.3,481.4,31.3z"/>
	<path class="st0" d="M96.9,215.1c-1.4,6,5.7,16.5-8.3,15.6c-12.6-0.8-4.6-10.3-6.5-15.6l-0.5,0.6c5.3,0,10.6,0,15.9,0L96.9,215.1z"
		/>
	<path class="st0" d="M603.7,200.2c6,1.4,16.5-5.7,15.6,8.4c-0.8,12.6-10.3,4.6-15.6,6.5l0.5,0.5c0-5.3,0-10.6,0-15.9L603.7,200.2z"
		/>
	<path class="st0" d="M481.4,15.4c-5.2-1.4-13,4.8-15.4-4.8c-0.7-2.7-0.3-7.6,1.3-8.6c2.8-1.7,7.7-2.6,10.5-1.3
		c6.6,3.3,2.1,10,3,15.1C480.9,16,481.4,15.4,481.4,15.4z"/>
	<path class="st0" d="M527.5,599c-5.3,0-10.6,0-15.9,0l0.6,0.5c0-5.3,0-10.6,0-15.9l-0.5,0.5c5.3,0,10.6,0,15.9,0l-0.5-0.5
		c0,5.3,0,10.6,0,15.9L527.5,599z"/>
	<path class="st0" d="M297.1,15.4c-5.2-1.4-13,4.8-15.4-4.8c-0.7-2.7-0.3-7.6,1.3-8.6c2.8-1.7,7.7-2.6,10.5-1.3
		c6.6,3.3,2.1,10,3,15.1C296.6,16,297.1,15.4,297.1,15.4z"/>
	<path class="st0" d="M189.6,614.4c-5.2-1.3-13,4.8-15.4-4.8c-0.7-2.7-0.3-7.6,1.4-8.6c2.8-1.7,7.7-2.6,10.5-1.2
		c6.6,3.3,2.1,10,3,15.1L189.6,614.4z"/>
	<path class="st0" d="M143.5,16c1.4-6-5.7-16.5,8.4-15.6c12.6,0.8,4.6,10.3,6.5,15.6l0.5-0.6c-5.3,0-10.6,0-15.9,0L143.5,16z"/>
	<path class="st0" d="M588.3,599.6c6,1.4,16.5-5.7,15.6,8.3c-0.8,12.6-10.3,4.6-15.6,6.5l0.5,0.5c0-5.3,0-10.6,0-15.9L588.3,599.6z"
		/>
	<path class="st0" d="M189,614.9c5.2,1.4,13.1-4.8,15.4,4.8c0.7,2.7,0.3,7.6-1.3,8.6c-2.8,1.7-7.7,2.6-10.5,1.3
		c-6.6-3.3-2.1-10-3-15.2C189.6,614.4,189,614.9,189,614.9z"/>
	<path class="st0" d="M265.8,584.2c-0.9-10.5,0.7-18.3,14.5-15.8c5.4,1,11.2,0,16.8-0.1c0.9,10.5-0.7,18.3-14.5,15.8
		C277.2,583.2,271.4,584.1,265.8,584.2z"/>
	<path class="st0" d="M450.6,569c-5-2.9-14.9,5.2-15.5-7.2c-0.8-14,10.1-7.9,15.9-8.1c5.3-0.2,14.9-5.3,14.8,7.4
		C465.7,573.9,455.9,566.4,450.6,569z"/>
	<path class="st0" d="M219.8,399.4c7.6,0.1,15.2,0.4,22.9,0.2c5.1-0.1,8.8,0.8,8.1,7.1c-0.4,3.6,0.7,8.6-5,8.1
		c-14.9-1.4-9.8,9.5-10.2,16.5c-0.4,7-3.1,15,10,15c9.9,0,3.1,10.1,5.4,15.1c-15.5,0-31.1,0-46.6,0c2.1-5.8-4.9-17,9.3-15.6
		c5.1,0.5,6.4-2.4,6.4-6.9c0-4.9-0.2-9.2-6.8-8.4c-6.5,0.7-9-1.7-8.8-8.5c0.2-6.4,3.4-6.9,8.4-7C226,414.7,218,404.8,219.8,399.4z"
		/>
	<path class="st0" d="M143.5,415.3c-5.3,0-10.6,0-15.9,0c-0.2-7.3,4.1-16.2-10.2-16.2c-9.4,0-2.9-10.1-5.1-15c25.8,0,51.6,0,77.3,0
		c1.2,11-1.3,18.2-14.8,15.8c-5.5-1-11.5,0.6-17-0.3C144.4,397.4,141.2,403.7,143.5,415.3z"/>
	<path class="st0" d="M143,430.6c0-5.3,0-10.6,0-15.9c5.6,0.1,11.4,1,16.8,0.1c13.6-2.2,16,4.6,13.9,15.8l0.5-0.5
		C163.8,430.3,153.4,430.4,143,430.6z"/>
	<path class="st0" d="M312.5,430.6c0-5.3,0-10.6,0-15.9l-0.5,0.5c5-2.8,14.9,5.6,15.7-7c0.9-14-10.1-6.6-15.7-8.9l0.5,0.5
		c-2.3-11.5,0.7-17,14.2-15.9c15.6,1.3,31.5,0.1,47.2,0c-0.1,10.7-0.2,21.5-0.2,32.2c0,7.2-2.4,14.6,10.3,14.8
		c9.6,0.1,3.4,9.8,4.8,15l0.5-0.5c-12.6-2-17.9,3.3-15.9,15.9l0.5-0.5c-12.7,0.1-25.4,0.3-38.1,0.2c-4.9,0-8.6,0.5-8.3,7
		c0.2,4.9,0.4,9.1,6.9,8.4c6.6-0.8,8.9,2,8.7,8.6c-0.3,10.1-7.6,6.6-12.3,6.6c-11,0-22.8-1.8-18.2,15.8c-5.3,0-10.6,0-15.9,0
		c2.9-13.1-2.2-18.2-15.4-15.4c0.2-5.3,0.4-10.6,0.5-15.9l-0.5,0.5c12.6,2,17.9-3.3,15.9-15.9l-0.5,0.5c12.6,2,17.9-3.3,15.9-15.9
		l-0.5,0.5c4.4-0.1,8.9-0.2,13.3-0.3c34.2-0.1,34.2-0.1,33-33.7c-0.2-5.8,2.4-13.1-8.5-12.5c-10,0.5-7.3,7.8-6.6,12.3
		c2.9,16.9-4.9,21.1-19.8,18.6c-3.7-0.6-7.6-0.3-11.4-0.4L312.5,430.6z"/>
	<path class="st0" d="M388.7,460.8c-1.4,6,5.7,16.5-8.4,15.6c-12.6-0.8-4.6-10.3-6.5-15.6l-0.5,0.5c5.3,0,10.6,0,15.9,0L388.7,460.8
		z"/>
	<path class="st0" d="M297.1,506.9c0,5.3,0,10.6,0,15.9c-12.6,2-17.9-3.3-15.9-15.9C286.5,506.9,291.8,506.9,297.1,506.9z"/>
	<ellipse class="st0" cx="112.5" cy="422.7" rx="22.1" ry="11.2"/>
	<path class="st0" d="M466,384c-12.2-1.6-18.8,2.4-15.4,15.9c-7.1-1-17.8,3.4-15.8-11c0.4-2.9-1.6-4.9-4.5-4.5
		c-14.2,1.7-10.4-8.2-10.4-15.8l-0.5,0.5c30.6-0.7,30.6-0.7,31.2-31.2l-0.5,0.5c5.3-0.2,10.6-0.4,15.9-0.5
		c-1,9.3-1.6,19.4,12.4,15.4c19-5.4,18.9,19,33.3,20c-2.4,14.5,8.6,10.1,15.8,11.2l-0.5-0.5c2.1,11.2-0.3,18-13.9,15.8
		c-5.5-0.9-11.2-0.3-16.8-0.4l0.5,0.5c2-12.6-3.3-17.9-15.9-15.9l0.5,0.5c-2.8-5,5.6-14.9-7-15.7c-14-0.9-6.6,10.1-8.9,15.7L466,384
		z"/>
	<path class="st0" d="M420,368.7c-10.4,0-20.8,0-31.3,0l0.5,0.5c0-5.3,0-10.6,0-15.9l-0.5,0.5c12.3,1.6,18.8-2.4,15.4-15.9
		c10.5-0.9,18.3,0.7,15.8,14.5c-1,5.4-0.3,11.2-0.4,16.8L420,368.7z"/>
	<path class="st0" d="M558.2,369.2c-13.1-2.9-18.2,2.2-15.4,15.4c-5.3-0.2-10.6-0.4-15.9-0.5l0.5,0.5c-0.2-15.5-0.4-31.1-0.5-46.6
		c5.3,0.2,10.6,0.4,15.9,0.5l-0.5-0.5c-2,12.6,3.3,17.9,15.9,15.9l-0.5-0.5C557.8,358.6,558,363.9,558.2,369.2z"/>
	<path class="st0" d="M542.3,384c5.3,0,10.6,0,15.9,0c0,5.3,0,10.6,0,15.9C545.6,401.9,540.3,396.6,542.3,384z"/>
	<path class="st0" d="M558.2,414.7c0,5.3,0,10.6,0,15.9c-5.3,0-10.6,0-15.9,0C540.3,418.1,545.6,412.8,558.2,414.7z"/>
	<path class="st0" d="M542.8,430.1c0,5.3,0,10.6,0,15.9c-5.3,0-10.6,0-15.9,0C525,433.4,530.3,428.1,542.8,430.1z"/>
	<path class="st0" d="M281.7,184.9c0-5.3,0-10.6,0-15.9l-0.5,0.5c30.6-0.7,30.6-0.7,31.2-31.2l-0.5,0.5c20.7,0,41.3,0,62,0l-0.5-0.5
		c0.2,15.5,0.4,31.1,0.5,46.6c-8.9,0-19,1.3-15.6-13.1c5.1-21.7-9.9-18-22.3-17.9c-4.8,0-8.9,0.1-8.5,6.8c0.2,4.7-0.1,9.4,6.7,8.6
		c8.5-1.1,9.5,3.8,8.7,10.4c-1.1,8.4-7.8,4.8-11.9,4.9c-16.5,0.4-33.1,0-49.7-0.1L281.7,184.9z"/>
	<path class="st0" d="M266.4,215.1c-7.6,0.1-15.2,1-22.7,0.1c-17-2-27.8,0.9-23.9,22.1c2.6,13.8-9.7,6.9-15.4,9
		c0.6-15-4.5-35.5,3.3-43.4c9.3-9.4,29.8-2.1,45.4-2.9c4.4-0.2,8.8,0.1,13.2,0.2l-0.5-0.6c0,5.3,0,10.6,0,15.9L266.4,215.1z"/>
	<path class="st0" d="M327.8,77.4c-2.2-11.4,0.6-17.5,14.1-15.9c10.5,1.3,21.3,0.4,32,0.5l-0.5-0.5c-2,12.6,3.3,17.9,15.9,15.9
		l-0.5-0.5c0,5.3,0,10.6,0,15.9l0.5-0.5c-5,2.3-13.9-4.5-15.3,5.5c-0.9,6.2-0.5,10.8-9.1,10.3c-10-0.6-7.1-8.1-6.3-12.4
		c2.9-17-5.1-21-19.9-18.6c-3.7,0.6-7.6-0.1-11.4-0.2L327.8,77.4z"/>
	<path class="st0" d="M312.4,107.5c-14.3,3.5-15.7-3.7-16.1-16c-0.5-13.8,5.4-15.7,16.4-14.5c5,0.6,10.1,0.2,15.1,0.3l-0.5-0.5
		c0.2,5.3,0.4,10.6,0.5,15.9c-13.5-3.4-17.5,3.1-15.9,15.4L312.4,107.5z"/>
	<path class="st0" d="M219.8,107.6c5.3,0,10.6,0,15.9,0c-0.1,5.5-1,11.2-0.1,16.5c2.1,12.6-3.9,16.1-15.1,14.9c0,0,0.6,0.5,0.6,0.5
		C220.6,128.9,220.2,118.2,219.8,107.6z"/>
	<path class="st0" d="M173.7,169.5c13.1,0.2,22,16.2,15.4,27.6c-2,3.4-5.2,2.7-8.2,2.9c-4.6,0.3-7.1-1.4-6.9-6.3
		c0.2-8.2,0.2-16.4,0.3-24.6L173.7,169.5z"/>
	<path class="st0" d="M282.4,137.5c-8.2,0.4-16.4,0.7-24.6,1c-4.2,0.2-7.6-0.7-7.1-6.1c0.3-3-1.2-7.8,2.3-8.3
		c8.1-1.1,16.6-2,24.4-0.5c7.7,1.5,2.2,9.7,4.4,14.4C281.9,138.1,282.4,137.5,282.4,137.5z"/>
	<path class="st0" d="M281.7,169c-6-1.4-16.5,5.7-15.6-8.3c0.8-12.6,10.2-4.7,15.6-6.5l-0.5-0.6c0,5.3,0,10.6,0,15.9L281.7,169z"/>
	<path class="st0" d="M174.2,169c-5.2-1.4-13.1,4.8-15.4-4.8c-0.7-2.7-0.3-7.6,1.3-8.6c2.8-1.7,7.7-2.6,10.5-1.3
		c6.6,3.3,2.1,10,3,15.1C173.7,169.5,174.2,169,174.2,169z"/>
	<path class="st0" d="M312.4,123.5c0-5.3,0-10.6,0-15.9l-0.5,0.6c5.3-0.2,10.6-0.3,15.9-0.5c1.6,12.2-2.4,18.8-15.9,15.3
		L312.4,123.5z"/>
	<path class="st0" d="M220.3,92.2c0,5.3,0,10.6,0,15.9c-5.6-2.3-16.6,5.2-15.7-8.9C205.4,86.6,215.3,95,220.3,92.2z"/>
	<path class="st0" d="M173.6,92.7c5.2,1.4,13.1-4.8,15.4,4.8c0.7,2.7,0.3,7.6-1.3,8.6c-2.8,1.7-7.7,2.6-10.5,1.3
		c-6.6-3.3-2.1-10-3-15.2C174.2,92.2,173.6,92.7,173.6,92.7z"/>
	<path class="st0" d="M219.8,169c-1.4,5.2,4.8,13.1-4.8,15.4c-2.7,0.7-7.6,0.3-8.6-1.3c-1.7-2.8-2.6-7.7-1.3-10.5
		c3.3-6.6,10-2.1,15.1-3C220.3,169.5,219.8,169,219.8,169z"/>
	<path class="st0" d="M373.3,46.1c12.2-1.6,18.8,2.3,15.3,15.9l0.5-0.5c-5.3,0-10.6,0-15.9,0l0.5,0.5
		C373.7,56.7,373.5,51.4,373.3,46.1z"/>
	<path class="st0" d="M250.5,246.3c7.6-0.1,15.1-0.3,22.7-0.2c4.9,0.1,8.7-0.3,8.3-6.9c-0.3-4.6,0.1-9.1-6.6-8.6
		c-14.1,1-7.3-9.5-8.6-15.6l-0.5,0.6c10.4-0.2,20.8-0.4,31.2-0.6c1.8,5.3-6.1,14.8,6.5,15.6c14,0.9,7-9.7,8.4-15.6
		c5.3,0,10.6,0,15.9,0c-0.1,7.5-0.1,15.1-0.3,22.6c-0.1,3.5,1,8.8-4.6,8.1c-14.5-1.7-9.9,8.8-10.9,15.9l0.5-0.5
		c-5.9,2-17-4.8-15.6,9.4c0.5,5.3-2.6,6.2-7,6.3c-5,0.1-9.1-0.5-8.3-6.9c0.8-6.8-2.2-8.7-8.7-8.6c-8.6,0.1-7.2,6.1-6.5,10.5
		c1.3,8.1-7,22,11.9,20.9c4.7-0.3,2.9,6,3.1,9.5c0.3,4.2-2.5,5.2-6,5.2c-8.3,0.1-16.6,0.2-24.8,0.3c0.2-20.6,0.4-41.3,0.6-62
		C251,245.8,250.5,246.3,250.5,246.3z"/>
	<path class="st0" d="M373.9,368.7c-11.8,2.2-17.4-1.3-16-14.6c0.5-4.9,5.2-13.4-4.7-15.7c-8.8-2.1-7.7,5.8-11.2,9.9
		c-5.6,6.7-16,9.4-17.7,20.3c0,0.2-6.9-0.6-10.6-1c5.4-15.6-25.7-15.3-15.3-24.8c8.2-7.4,14-25.6,33.5-20.6c13.2,3.4,28,0.8,42,0.9
		l-0.5-0.5c-1.6,12.3,2.4,18.8,15.9,15.4c-0.2,5.3-0.4,10.6-0.5,15.9l0.5-0.5c-12.6-2-17.9,3.3-15.9,15.9L373.9,368.7z"/>
	<path class="st0" d="M373.9,276.5c-12.7,0.1-25.4,0.3-38.1,0.2c-4.9,0-8.6,0.5-8.3,7c0.2,4.9,0.4,9.1,6.9,8.4
		c6.6-0.8,8.8,2,8.7,8.6c-0.1,8.5-5.8,6.1-10.4,6.8c-15.8,2.6-23.7-2.1-20.7-19.8c1.5-8.7,0.4-17.8,0.5-26.7l-0.5,0.5
		c20.7-0.2,41.3-0.4,62-0.5c-0.2,5.3-0.4,10.6-0.5,15.9L373.9,276.5z"/>
	<path class="st0" d="M204.4,322.5c-0.2,13.2-16.1,22-27.5,15.5c-3.5-2-2.7-5.2-2.9-8.2c-0.3-4.6,1.3-7.1,6.3-7
		c8.2,0.2,16.4,0.2,24.7,0.2C204.9,323.1,204.4,322.5,204.4,322.5z"/>
	<path class="st0" d="M281.2,399.3c-1.4,5.2,4.8,13-4.8,15.4c-2.7,0.7-7.6,0.3-8.6-1.3c-1.7-2.8-2.6-7.7-1.3-10.5
		c3.3-6.6,10-2.1,15.1-3L281.2,399.3z"/>
	<path class="st0" d="M281.7,445.4c-5.2-1.4-13,4.8-15.4-4.8c-0.7-2.7-0.3-7.6,1.3-8.6c2.8-1.7,7.7-2.6,10.5-1.2
		c6.6,3.3,2.1,10,3,15.1L281.7,445.4z"/>
	<path class="st0" d="M404.1,154.2c7.4,0.1,16.1-4.1,16.2,10.2c0.1,9.3,9.8,3.3,15,4.6c1,5.1-3.6,11.9,3,15.1
		c2.8,1.4,7.7,0.4,10.5-1.3c1.6-1,2-5.9,1.3-8.6c-2.4-9.6-10.1-3.4-15.4-4.8c-1.8-12.7,3.3-18,16.4-15.8c4.8,0.8,10,0,14.9-0.1
		c-0.7,30.5-0.7,31.3,31.3,30.6c13.3-0.3,16.5,4.4,14.2,16l0.5-0.5c-7.5,0.1-15.1,0.1-22.6,0.3c-3.5,0.1-8.8-1-8.1,4.6
		c1.7,14.4-8.9,9.9-15.9,10.9c2.2-11.5-0.7-17.1-14.2-15.9c-15.6,1.4-31.5,0.5-47.2,0.6c0.2-15.5,0.4-31.1,0.5-46.6L404.1,154.2z"/>
	<path class="st0" d="M480.9,153.6c10.4,0,20.8,0,31.2,0c1.9,13.1-3.6,16.1-16.6,16.2C482,170,479.7,164.5,480.9,153.6z"/>
	<path class="st0" d="M404.6,123.5c-5.3-0.2-10.6-0.4-15.9-0.6l0.5,0.6c0-10.4,0-20.8,0-31.2l-0.5,0.5c5.3,0,10.6,0,15.9,0l-0.5-0.5
		C404.2,102.6,404.4,113,404.6,123.5z"/>
	<path class="st0" d="M419.4,92.2c5.3,0,10.6,0,15.9,0c-2.3,5.6,5.2,16.6-8.9,15.7C413.8,107.1,422.2,97.2,419.4,92.2z"/>
	<path class="st0" d="M404.1,77.4c13.6-3.4,17.5,3.1,15.9,15.3c-5.3-0.2-10.6-0.3-15.9-0.5l0.5,0.5c0-5.3,0-10.6,0-15.9L404.1,77.4z
		"/>
	<path class="st0" d="M388.7,62c5.3-0.2,10.6-0.3,15.9-0.5c-0.2,5.3-0.4,10.6-0.5,15.9l0.5-0.6c-5.3,0-10.6,0-15.9,0l0.5,0.5
		c0-5.3,0-10.6,0-15.9L388.7,62z"/>
	<path class="st0" d="M588.9,245.8c0,5.3,0,10.6,0,15.9c-7.7-0.1-14.7-3.3-16.7,10.4c-1.5,10.6-14.9,3.7-22.8,4.3
		c-12.8,1-4.4-10.2-7.2-15.2c7.5,0,17.3,3.9,15.9-10.4c-0.6-5.7,4.7-4.6,8.1-4.7C573.8,245.9,581.4,245.9,588.9,245.8z"/>
	<path class="st0" d="M558.2,307.8c-13.5-3.4-17.5,3.1-15.9,15.4l0.5-0.5c-5.3,0.2-10.6,0.4-15.9,0.5c-1.8-5.3,6.1-14.8-6.5-15.6
		c-14-0.9-7,9.7-8.3,15.6c-10.4,0-20.8,0-31.2,0c-1.8-5.3,6.1-14.8-6.5-15.6c-14-0.9-7,9.7-8.4,15.6c-13.6-3.5-17.5,3.1-15.9,15.3
		l0.5-0.5c-7.5,0-17.3,3.9-15.9-10.4c0.6-5.7-4.7-4.6-8.1-4.6c-7.5-0.1-15.1,0.1-22.6,0.2c0.2-5.3,0.4-10.6,0.5-15.9l-0.5,0.5
		c12.2,1.6,18.8-2.3,15.3-15.9c5,2.3,13.9-4.5,15.3,5.5c0.9,6.2,0.5,11,9.1,10.3c11.3-1,6.6-9.5,6.2-14.3
		c-0.9-12.4,1.5-19.8,16-16.3l-0.5-0.5c2.8,5-5.6,14.9,7,15.7c14,0.9,6.6-10.1,8.9-15.7l-0.5,0.5c7.8-0.2,17-3.7,16,10.6
		c-0.5,7,6.5,4.2,10.2,4.3c12.1,0.4,24.3,1.2,36.1-0.1C556.8,290.3,559.5,296.6,558.2,307.8z"/>
	<path class="st0" d="M512.1,261.1c-10.4,0-20.8,0-31.2,0l0.5,0.5c-0.2-5.3-0.4-10.6-0.5-15.9c10.4,0.2,20.8,0.4,31.2,0.6l-0.5-0.5
		c0,5.3,0,10.6,0,15.9L512.1,261.1z"/>
	<path class="st0" d="M327.3,108.1c0-5.3,0-10.6,0-15.9c5.6,2.3,16.6-5.2,15.7,8.9C342.1,113.7,332.3,105.3,327.3,108.1z"/>
	<path class="st0" d="M465.5,245.8c0.2,5.3,0.4,10.6,0.5,15.9c-20.7,0-41.3,0-62,0c1.2-6.8-3.8-16.4,10.8-16.3
		c9.2,0.1,3.3-9.7,4.6-15c5.3,0.2,10.6,0.4,15.9,0.6l-0.5-0.6c-0.9,10.5,0.7,18.3,14.5,15.8c5.4-1,11.2,0,16.8,0.1L465.5,245.8z"/>
	<path class="st0" d="M374.6,245c-8.2,0.4-16.4,0.7-24.6,1c-4.2,0.2-7.6-0.7-7.1-6.1c0.3-3-1.2-7.8,2.3-8.3c8-1.1,16.6-2,24.4-0.5
		c7.7,1.5,2.2,9.7,4.4,14.4C374,245.6,374.6,245,374.6,245z"/>
</g>
</svg>
