{"asset":{"version":"2.0","generator":"THREE.GLTFExporter"},"scenes":[{"nodes":[0],"name":"AuxScene"}],"scene":0,"nodes":[{"mesh":0}],"bufferViews":[{"buffer":0,"byteOffset":0,"byteLength":7380,"target":34962,"byteStride":12},{"buffer":0,"byteOffset":7380,"byteLength":7380,"target":34962,"byteStride":12}],"buffers":[{"byteLength":14760,"uri":"data:application/octet-stream;base64,"}],"accessors":[{"bufferView":0,"componentType":5126,"count":615,"max":[49.30000305175781,3.495971918106079,45.30000305175781],"min":[-49.400001525878906,0.09597200155258179,-53.400001525878906],"type":"VEC3"},{"bufferView":1,"componentType":5126,"count":615,"max":[0.7999997735023499,1,0.19810783863067627],"min":[-0.5533698797225952,0.6000003218650818,-0.6486480236053467],"type":"VEC3"}],"materials":[{"pbrMetallicRoughness":{"baseColorFactor":[0.5019607843137255,0.5019607843137255,0.5019607843137255,1],"metallicFactor":0,"roughnessFactor":1}}],"meshes":[{"primitives":[{"mode":4,"attributes":{"POSITION":0,"NORMAL":1},"material":0}]}]}