{
	"asset": {
		"version": "2.0",
		"generator": "GLTFExporter"
	},
	"scenes": [
		{
			"name": "scene",
			"nodes": [
				2,
				3,
				4,
				28
			]
		}
	],
	"scene": 0,
	"nodes": [
		{
			"matrix": [
				1,
				0,
				0,
				0,
				0,
				1,
				0,
				0,
				0,
				0,
				1,
				0,
				-70.71067811865474,
				70.71067811865476,
				0,
				1
			],
			"name": "directional",
			"extensions": {
				"KHR_lights_punctual": {
					"light": 0
				}
			}
		},
		{
			"mesh": 0
		},
		{
			"name": "sky",
			"children": [
				0,
				1
			]
		},
		{
			"name": "navmesh (10)"
		},
		{
			"name": "navmesh (10)"
		},
		{
			"camera": 0
		},
		{
			"matrix": [
				-0.9922713819044078,
				-1.734723475976807e-18,
				-0.12408668201510184,
				0,
				-0.01854328202518218,
				0.9887710779360421,
				0.14828318221879228,
				0,
				0.12269332233357916,
				0.1494381324735993,
				-0.9811292438907075,
				0,
				0,
				1.6,
				0,
				1
			],
			"children": [
				5
			]
		},
		{
			"matrix": [
				1,
				0,
				0,
				0,
				0,
				1,
				0,
				0,
				0,
				0,
				1,
				0,
				9.692699142283514,
				0.1,
				-18.26475633788948,
				1
			],
			"children": [
				6
			]
		},
		{
			"matrix": [
				0.0095,
				0,
				0,
				0,
				0,
				-0.0095,
				1.1634144591899855e-18,
				0,
				0,
				-6.123233995736766e-17,
				-0.5,
				0,
				0,
				0,
				0,
				1
			],
			"name": "mesh_0",
			"mesh": 1
		},
		{
			"matrix": [
				0.0095,
				0,
				0,
				0,
				0,
				-0.0095,
				1.1634144591899855e-18,
				0,
				0,
				-6.13548046372824e-17,
				-0.501,
				0,
				0,
				0,
				0,
				1
			],
			"name": "mesh_1",
			"mesh": 2
		},
		{
			"matrix": [
				0.0095,
				0,
				0,
				0,
				0,
				-0.0095,
				1.1634144591899855e-18,
				0,
				0,
				-6.147726931719713e-17,
				-0.502,
				0,
				0,
				0,
				0,
				1
			],
			"name": "mesh_2",
			"mesh": 3
		},
		{
			"matrix": [
				0.0095,
				0,
				0,
				0,
				0,
				-0.0095,
				1.1634144591899855e-18,
				0,
				0,
				-6.159973399711187e-17,
				-0.503,
				0,
				0,
				0,
				0,
				1
			],
			"name": "mesh_3",
			"mesh": 4
		},
		{
			"matrix": [
				0.0095,
				0,
				0,
				0,
				0,
				-0.0095,
				1.1634144591899855e-18,
				0,
				0,
				-6.17221986770266e-17,
				-0.504,
				0,
				0,
				0,
				0,
				1
			],
			"name": "mesh_4",
			"mesh": 5
		},
		{
			"matrix": [
				0.0095,
				0,
				0,
				0,
				0,
				-0.0095,
				1.1634144591899855e-18,
				0,
				0,
				-6.184466335694134e-17,
				-0.505,
				0,
				0,
				0,
				0,
				1
			],
			"name": "mesh_5",
			"mesh": 6
		},
		{
			"matrix": [
				0.0095,
				0,
				0,
				0,
				0,
				-0.0095,
				1.1634144591899855e-18,
				0,
				0,
				-6.196712803685607e-17,
				-0.506,
				0,
				0,
				0,
				0,
				1
			],
			"name": "mesh_6",
			"mesh": 7
		},
		{
			"matrix": [
				0.0095,
				0,
				0,
				0,
				0,
				-0.0095,
				1.1634144591899855e-18,
				0,
				0,
				-6.20895927167708e-17,
				-0.507,
				0,
				0,
				0,
				0,
				1
			],
			"name": "mesh_7",
			"mesh": 8
		},
		{
			"matrix": [
				0.0095,
				0,
				0,
				0,
				0,
				-0.0095,
				1.1634144591899855e-18,
				0,
				0,
				-6.221205739668554e-17,
				-0.508,
				0,
				0,
				0,
				0,
				1
			],
			"name": "mesh_8",
			"mesh": 9
		},
		{
			"matrix": [
				0.0095,
				0,
				0,
				0,
				0,
				-0.0095,
				1.1634144591899855e-18,
				0,
				0,
				-6.233452207660028e-17,
				-0.509,
				0,
				0,
				0,
				0,
				1
			],
			"name": "mesh_9",
			"mesh": 10
		},
		{
			"matrix": [
				0.0095,
				0,
				0,
				0,
				0,
				-0.0095,
				1.1634144591899855e-18,
				0,
				0,
				-6.245698675651501e-17,
				-0.51,
				0,
				0,
				0,
				0,
				1
			],
			"name": "mesh_10",
			"mesh": 11
		},
		{
			"matrix": [
				0.0095,
				0,
				0,
				0,
				0,
				-0.0095,
				1.1634144591899853e-18,
				0,
				0,
				-6.257945143642973e-17,
				-0.511,
				0,
				0,
				0,
				0,
				1
			],
			"name": "mesh_11",
			"mesh": 12
		},
		{
			"children": [
				8,
				9,
				10,
				11,
				12,
				13,
				14,
				15,
				16,
				17,
				18,
				19
			]
		},
		{
			"matrix": [
				3,
				0,
				0,
				0,
				0,
				6.661338147750939e-16,
				-3,
				0,
				0,
				12,
				2.6645352591003757e-15,
				0,
				1,
				0,
				-4,
				1
			],
			"children": [
				20
			]
		},
		{
			"matrix": [
				1,
				0,
				0,
				0,
				0,
				2.220446049250313e-16,
				-1,
				0,
				0,
				1,
				2.220446049250313e-16,
				0,
				0,
				0,
				-4,
				1
			]
		},
		{},
		{
			"matrix": [
				1,
				0,
				0,
				0,
				0,
				1,
				0,
				0,
				0,
				0,
				1,
				0,
				-0.5,
				1,
				1,
				1
			]
		},
		{},
		{
			"matrix": [
				1,
				0,
				0,
				0,
				0,
				1,
				0,
				0,
				0,
				0,
				1,
				0,
				0,
				1.6,
				2,
				1
			],
			"camera": 1
		},
		{
			"camera": 2
		},
		{
			"name": "127-0-0-1-5500-aframe-escape-experiments-riddles-aframe-maze-index-html (3)",
			"children": [
				7,
				21,
				22,
				23,
				24,
				25,
				26,
				27
			]
		}
	],
	"extensions": {
		"KHR_lights_punctual": {
			"lights": [
				{
					"name": "directional",
					"color": [
						1,
						1,
						0.6666666666666666
					],
					"intensity": 0.3,
					"type": "directional"
				}
			]
		}
	},
	"bufferViews": [
		{
			"buffer": 0,
			"byteOffset": 0,
			"byteLength": 3468,
			"target": 34962,
			"byteStride": 12
		},
		{
			"buffer": 0,
			"byteOffset": 3468,
			"byteLength": 3468,
			"target": 34962,
			"byteStride": 12
		},
		{
			"buffer": 0,
			"byteOffset": 6936,
			"byteLength": 2312,
			"target": 34962,
			"byteStride": 8
		},
		{
			"buffer": 0,
			"byteOffset": 9248,
			"byteLength": 2880,
			"target": 34963
		},
		{
			"buffer": 0,
			"byteOffset": 12128,
			"byteLength": 143280,
			"target": 34962,
			"byteStride": 12
		},
		{
			"buffer": 0,
			"byteOffset": 155408,
			"byteLength": 95520,
			"target": 34962,
			"byteStride": 8
		},
		{
			"buffer": 0,
			"byteOffset": 250928,
			"byteLength": 143280,
			"target": 34962,
			"byteStride": 12
		},
		{
			"buffer": 0,
			"byteOffset": 394208,
			"byteLength": 32688,
			"target": 34962,
			"byteStride": 12
		},
		{
			"buffer": 0,
			"byteOffset": 426896,
			"byteLength": 21792,
			"target": 34962,
			"byteStride": 8
		},
		{
			"buffer": 0,
			"byteOffset": 448688,
			"byteLength": 32688,
			"target": 34962,
			"byteStride": 12
		},
		{
			"buffer": 0,
			"byteOffset": 481376,
			"byteLength": 34416,
			"target": 34962,
			"byteStride": 12
		},
		{
			"buffer": 0,
			"byteOffset": 515792,
			"byteLength": 22944,
			"target": 34962,
			"byteStride": 8
		},
		{
			"buffer": 0,
			"byteOffset": 538736,
			"byteLength": 34416,
			"target": 34962,
			"byteStride": 12
		},
		{
			"buffer": 0,
			"byteOffset": 573152,
			"byteLength": 39600,
			"target": 34962,
			"byteStride": 12
		},
		{
			"buffer": 0,
			"byteOffset": 612752,
			"byteLength": 26400,
			"target": 34962,
			"byteStride": 8
		},
		{
			"buffer": 0,
			"byteOffset": 639152,
			"byteLength": 39600,
			"target": 34962,
			"byteStride": 12
		},
		{
			"buffer": 0,
			"byteOffset": 678752,
			"byteLength": 60336,
			"target": 34962,
			"byteStride": 12
		},
		{
			"buffer": 0,
			"byteOffset": 739088,
			"byteLength": 40224,
			"target": 34962,
			"byteStride": 8
		},
		{
			"buffer": 0,
			"byteOffset": 779312,
			"byteLength": 60336,
			"target": 34962,
			"byteStride": 12
		},
		{
			"buffer": 0,
			"byteOffset": 839648,
			"byteLength": 49968,
			"target": 34962,
			"byteStride": 12
		},
		{
			"buffer": 0,
			"byteOffset": 889616,
			"byteLength": 33312,
			"target": 34962,
			"byteStride": 8
		},
		{
			"buffer": 0,
			"byteOffset": 922928,
			"byteLength": 49968,
			"target": 34962,
			"byteStride": 12
		},
		{
			"buffer": 0,
			"byteOffset": 972896,
			"byteLength": 55152,
			"target": 34962,
			"byteStride": 12
		},
		{
			"buffer": 0,
			"byteOffset": 1028048,
			"byteLength": 36768,
			"target": 34962,
			"byteStride": 8
		},
		{
			"buffer": 0,
			"byteOffset": 1064816,
			"byteLength": 55152,
			"target": 34962,
			"byteStride": 12
		},
		{
			"buffer": 0,
			"byteOffset": 1119968,
			"byteLength": 74088,
			"target": 34962,
			"byteStride": 12
		},
		{
			"buffer": 0,
			"byteOffset": 1194056,
			"byteLength": 49392,
			"target": 34962,
			"byteStride": 8
		},
		{
			"buffer": 0,
			"byteOffset": 1243448,
			"byteLength": 74088,
			"target": 34962,
			"byteStride": 12
		},
		{
			"buffer": 0,
			"byteOffset": 1317536,
			"byteLength": 51696,
			"target": 34962,
			"byteStride": 12
		},
		{
			"buffer": 0,
			"byteOffset": 1369232,
			"byteLength": 34464,
			"target": 34962,
			"byteStride": 8
		},
		{
			"buffer": 0,
			"byteOffset": 1403696,
			"byteLength": 51696,
			"target": 34962,
			"byteStride": 12
		},
		{
			"buffer": 0,
			"byteOffset": 1455392,
			"byteLength": 70704,
			"target": 34962,
			"byteStride": 12
		},
		{
			"buffer": 0,
			"byteOffset": 1526096,
			"byteLength": 47136,
			"target": 34962,
			"byteStride": 8
		},
		{
			"buffer": 0,
			"byteOffset": 1573232,
			"byteLength": 70704,
			"target": 34962,
			"byteStride": 12
		},
		{
			"buffer": 0,
			"byteOffset": 1643936,
			"byteLength": 84528,
			"target": 34962,
			"byteStride": 12
		},
		{
			"buffer": 0,
			"byteOffset": 1728464,
			"byteLength": 56352,
			"target": 34962,
			"byteStride": 8
		},
		{
			"buffer": 0,
			"byteOffset": 1784816,
			"byteLength": 84528,
			"target": 34962,
			"byteStride": 12
		},
		{
			"buffer": 0,
			"byteOffset": 1869344,
			"byteLength": 51696,
			"target": 34962,
			"byteStride": 12
		},
		{
			"buffer": 0,
			"byteOffset": 1921040,
			"byteLength": 34464,
			"target": 34962,
			"byteStride": 8
		},
		{
			"buffer": 0,
			"byteOffset": 1955504,
			"byteLength": 51696,
			"target": 34962,
			"byteStride": 12
		}
	],
	"buffers": [
		{
			"byteLength": 2007200,
			"uri": "data:application/octet-stream;base64,"
		}
	],
	"accessors": [
		{
			"bufferView": 0,
			"componentType": 5126,
			"count": 289,
			"max": [
				1500,
				1500,
				1500
			],
			"min": [
				-1500,
				-1500,
				-1500
			],
			"type": "VEC3"
		},
		{
			"bufferView": 1,
			"componentType": 5126,
			"count": 289,
			"max": [
				1,
				1,
				1
			],
			"min": [
				-1,
				-1,
				-1
			],
			"type": "VEC3"
		},
		{
			"bufferView": 2,
			"componentType": 5126,
			"count": 289,
			"max": [
				1.03125,
				1
			],
			"min": [
				-0.03125,
				0
			],
			"type": "VEC2"
		},
		{
			"bufferView": 3,
			"componentType": 5123,
			"count": 1440,
			"max": [
				288
			],
			"min": [
				0
			],
			"type": "SCALAR"
		},
		{
			"bufferView": 4,
			"componentType": 5126,
			"count": 11940,
			"max": [
				711.2747192382812,
				-79.7108154296875,
				0
			],
			"min": [
				-469.5858154296875,
				-950.7338256835938,
				-0.5
			],
			"type": "VEC3"
		},
		{
			"bufferView": 5,
			"componentType": 5126,
			"count": 11940,
			"max": [
				1541.4312744140625,
				1136.7225341796875
			],
			"min": [
				265.69952392578125,
				0.5
			],
			"type": "VEC2"
		},
		{
			"bufferView": 6,
			"componentType": 5126,
			"count": 11940,
			"max": [
				0.9999984502792358,
				0.9999990463256836,
				1
			],
			"min": [
				-0.9999997019767761,
				-0.9999933838844299,
				-1
			],
			"type": "VEC3"
		},
		{
			"bufferView": 7,
			"componentType": 5126,
			"count": 2724,
			"max": [
				-211.21282958984375,
				-698.1470947265625,
				0
			],
			"min": [
				-266.900634765625,
				-749.393310546875,
				-0.5
			],
			"type": "VEC3"
		},
		{
			"bufferView": 8,
			"componentType": 5126,
			"count": 2724,
			"max": [
				618.9437255859375,
				518.2862548828125
			],
			"min": [
				467.0400085449219,
				0.5
			],
			"type": "VEC2"
		},
		{
			"bufferView": 9,
			"componentType": 5126,
			"count": 2724,
			"max": [
				0.9999959468841553,
				0.9999558925628662,
				1
			],
			"min": [
				-0.9996722936630249,
				-0.9998332262039185,
				-1
			],
			"type": "VEC3"
		},
		{
			"bufferView": 10,
			"componentType": 5126,
			"count": 2868,
			"max": [
				72.58477020263672,
				-803.6566772460938,
				0
			],
			"min": [
				1.5253219604492188,
				-877.1677856445312,
				-0.5
			],
			"type": "VEC3"
		},
		{
			"bufferView": 11,
			"componentType": 5126,
			"count": 2868,
			"max": [
				902.7413330078125,
				412.77667236328125
			],
			"min": [
				339.26556396484375,
				0.5
			],
			"type": "VEC2"
		},
		{
			"bufferView": 12,
			"componentType": 5126,
			"count": 2868,
			"max": [
				0.9998915791511536,
				0.9998750686645508,
				1
			],
			"min": [
				-0.9999983906745911,
				-0.9999951124191284,
				-1
			],
			"type": "VEC3"
		},
		{
			"bufferView": 13,
			"componentType": 5126,
			"count": 3300,
			"max": [
				450.77056884765625,
				-620.1100463867188,
				0
			],
			"min": [
				357.02532958984375,
				-713.6578369140625,
				-0.5
			],
			"type": "VEC3"
		},
		{
			"bufferView": 14,
			"componentType": 5126,
			"count": 3300,
			"max": [
				1280.9271240234375,
				596.3233032226562
			],
			"min": [
				502.7754821777344,
				0.5
			],
			"type": "VEC2"
		},
		{
			"bufferView": 15,
			"componentType": 5126,
			"count": 3300,
			"max": [
				0.9999070167541504,
				0.9995229244232178,
				1
			],
			"min": [
				-0.9999809861183167,
				-0.9998749494552612,
				-1
			],
			"type": "VEC3"
		},
		{
			"bufferView": 16,
			"componentType": 5126,
			"count": 5028,
			"max": [
				560.6614379882812,
				-401.324462890625,
				0
			],
			"min": [
				467.04840087890625,
				-491.24615478515625,
				-0.5
			],
			"type": "VEC3"
		},
		{
			"bufferView": 17,
			"componentType": 5126,
			"count": 5028,
			"max": [
				1390.8179931640625,
				815.10888671875
			],
			"min": [
				725.1871948242188,
				0.5
			],
			"type": "VEC2"
		},
		{
			"bufferView": 18,
			"componentType": 5126,
			"count": 5028,
			"max": [
				0.9999850988388062,
				0.9999945759773254,
				1
			],
			"min": [
				-0.9999953508377075,
				-0.9999982714653015,
				-1
			],
			"type": "VEC3"
		},
		{
			"bufferView": 19,
			"componentType": 5126,
			"count": 4164,
			"max": [
				398.45074462890625,
				-168.36962890625,
				0
			],
			"min": [
				315.55194091796875,
				-265.4326171875,
				-0.5
			],
			"type": "VEC3"
		},
		{
			"bufferView": 20,
			"componentType": 5126,
			"count": 4164,
			"max": [
				1228.6072998046875,
				1048.063720703125
			],
			"min": [
				951.000732421875,
				0.5
			],
			"type": "VEC2"
		},
		{
			"bufferView": 21,
			"componentType": 5126,
			"count": 4164,
			"max": [
				0.9998924136161804,
				0.9995625019073486,
				1
			],
			"min": [
				-0.9999629259109497,
				-0.99998939037323,
				-1
			],
			"type": "VEC3"
		},
		{
			"bufferView": 22,
			"componentType": 5126,
			"count": 4596,
			"max": [
				-527.6065673828125,
				-562.043701171875,
				0
			],
			"min": [
				-613.70166015625,
				-622.2034301757812,
				-0.5
			],
			"type": "VEC3"
		},
		{
			"bufferView": 23,
			"componentType": 5126,
			"count": 4596,
			"max": [
				654.3896484375,
				654.3896484375
			],
			"min": [
				216.45492553710938,
				0.5
			],
			"type": "VEC2"
		},
		{
			"bufferView": 24,
			"componentType": 5126,
			"count": 4596,
			"max": [
				1,
				0.9999877214431763,
				1
			],
			"min": [
				-0.9999736547470093,
				-1,
				-1
			],
			"type": "VEC3"
		},
		{
			"bufferView": 25,
			"componentType": 5126,
			"count": 6174,
			"max": [
				-349.6790466308594,
				-851.7847290039062,
				0
			],
			"min": [
				-426.0119323730469,
				-964.3133544921875,
				-0.5
			],
			"type": "VEC3"
		},
		{
			"bufferView": 26,
			"componentType": 5126,
			"count": 6174,
			"max": [
				480.4775085449219,
				364.64862060546875
			],
			"min": [
				252.1199951171875,
				0.5
			],
			"type": "VEC2"
		},
		{
			"bufferView": 27,
			"componentType": 5126,
			"count": 6174,
			"max": [
				1,
				0.9999910593032837,
				1
			],
			"min": [
				-0.9999879598617554,
				-0.9985553026199341,
				-1
			],
			"type": "VEC3"
		},
		{
			"bufferView": 28,
			"componentType": 5126,
			"count": 4308,
			"max": [
				68.37114715576172,
				-973.3987426757812,
				0
			],
			"min": [
				12.281669616699219,
				-1067.471435546875,
				-0.5
			],
			"type": "VEC3"
		},
		{
			"bufferView": 29,
			"componentType": 5126,
			"count": 4308,
			"max": [
				898.5277099609375,
				243.0346221923828
			],
			"min": [
				148.96185302734375,
				0.5
			],
			"type": "VEC2"
		},
		{
			"bufferView": 30,
			"componentType": 5126,
			"count": 4308,
			"max": [
				0.9999940991401672,
				0.9999889135360718,
				1
			],
			"min": [
				-0.9999998807907104,
				-0.9999998807907104,
				-1
			],
			"type": "VEC3"
		},
		{
			"bufferView": 31,
			"componentType": 5126,
			"count": 5892,
			"max": [
				623.5048217773438,
				-825.9933471679688,
				0
			],
			"min": [
				517.8034057617188,
				-944.0098876953125,
				-0.5
			],
			"type": "VEC3"
		},
		{
			"bufferView": 32,
			"componentType": 5126,
			"count": 5892,
			"max": [
				1453.661376953125,
				390.44000244140625
			],
			"min": [
				272.4234313964844,
				0.5
			],
			"type": "VEC2"
		},
		{
			"bufferView": 33,
			"componentType": 5126,
			"count": 5892,
			"max": [
				1,
				0.9994702339172363,
				1
			],
			"min": [
				-0.999045193195343,
				-0.9990383982658386,
				-1
			],
			"type": "VEC3"
		},
		{
			"bufferView": 34,
			"componentType": 5126,
			"count": 7044,
			"max": [
				440.62664794921875,
				72.241455078125,
				0
			],
			"min": [
				364.24346923828125,
				-72.241455078125,
				-0.5
			],
			"type": "VEC3"
		},
		{
			"bufferView": 35,
			"componentType": 5126,
			"count": 7044,
			"max": [
				1288.6748046875,
				1288.6748046875
			],
			"min": [
				1144.19189453125,
				0.5
			],
			"type": "VEC2"
		},
		{
			"bufferView": 36,
			"componentType": 5126,
			"count": 7044,
			"max": [
				1,
				0.9999661445617676,
				1
			],
			"min": [
				-0.999985933303833,
				-0.9999661445617676,
				-1
			],
			"type": "VEC3"
		},
		{
			"bufferView": 37,
			"componentType": 5126,
			"count": 4308,
			"max": [
				-279.4420166015625,
				-52.081298828125,
				0
			],
			"min": [
				-418.91656494140625,
				-190.04443359375,
				-0.5
			],
			"type": "VEC3"
		},
		{
			"bufferView": 38,
			"componentType": 5126,
			"count": 4308,
			"max": [
				1164.35205078125,
				1164.35205078125
			],
			"min": [
				411.239990234375,
				0.5
			],
			"type": "VEC2"
		},
		{
			"bufferView": 39,
			"componentType": 5126,
			"count": 4308,
			"max": [
				0.9998932480812073,
				0.9968389272689819,
				1
			],
			"min": [
				-0.9999213814735413,
				-0.999235212802887,
				-1
			],
			"type": "VEC3"
		}
	],
	"meshes": [
		{
			"primitives": [
				{
					"mode": 4,
					"attributes": {
						"POSITION": 0,
						"NORMAL": 1,
						"TEXCOORD_0": 2
					},
					"indices": 3
				}
			]
		},
		{
			"primitives": [
				{
					"mode": 4,
					"attributes": {
						"POSITION": 4,
						"TEXCOORD_0": 5,
						"NORMAL": 6
					},
					"material": 0
				}
			]
		},
		{
			"primitives": [
				{
					"mode": 4,
					"attributes": {
						"POSITION": 7,
						"TEXCOORD_0": 8,
						"NORMAL": 9
					},
					"material": 1
				}
			]
		},
		{
			"primitives": [
				{
					"mode": 4,
					"attributes": {
						"POSITION": 10,
						"TEXCOORD_0": 11,
						"NORMAL": 12
					},
					"material": 1
				}
			]
		},
		{
			"primitives": [
				{
					"mode": 4,
					"attributes": {
						"POSITION": 13,
						"TEXCOORD_0": 14,
						"NORMAL": 15
					},
					"material": 1
				}
			]
		},
		{
			"primitives": [
				{
					"mode": 4,
					"attributes": {
						"POSITION": 16,
						"TEXCOORD_0": 17,
						"NORMAL": 18
					},
					"material": 1
				}
			]
		},
		{
			"primitives": [
				{
					"mode": 4,
					"attributes": {
						"POSITION": 19,
						"TEXCOORD_0": 20,
						"NORMAL": 21
					},
					"material": 1
				}
			]
		},
		{
			"primitives": [
				{
					"mode": 4,
					"attributes": {
						"POSITION": 22,
						"TEXCOORD_0": 23,
						"NORMAL": 24
					},
					"material": 2
				}
			]
		},
		{
			"primitives": [
				{
					"mode": 4,
					"attributes": {
						"POSITION": 25,
						"TEXCOORD_0": 26,
						"NORMAL": 27
					},
					"material": 2
				}
			]
		},
		{
			"primitives": [
				{
					"mode": 4,
					"attributes": {
						"POSITION": 28,
						"TEXCOORD_0": 29,
						"NORMAL": 30
					},
					"material": 2
				}
			]
		},
		{
			"primitives": [
				{
					"mode": 4,
					"attributes": {
						"POSITION": 31,
						"TEXCOORD_0": 32,
						"NORMAL": 33
					},
					"material": 2
				}
			]
		},
		{
			"primitives": [
				{
					"mode": 4,
					"attributes": {
						"POSITION": 34,
						"TEXCOORD_0": 35,
						"NORMAL": 36
					},
					"material": 2
				}
			]
		},
		{
			"primitives": [
				{
					"mode": 4,
					"attributes": {
						"POSITION": 37,
						"TEXCOORD_0": 38,
						"NORMAL": 39
					},
					"material": 2
				}
			]
		}
	],
	"cameras": [
		{
			"type": "perspective",
			"perspective": {
				"aspectRatio": 1.4838709677419355,
				"yfov": 0.9409601184665081,
				"zfar": 10000,
				"znear": 0.005
			}
		},
		{
			"type": "perspective",
			"perspective": {
				"aspectRatio": 0.9078947368421053,
				"yfov": 0.961195819938906,
				"zfar": 10000,
				"znear": 0.01
			}
		},
		{
			"type": "orthographic",
			"orthographic": {
				"xmag": 59.35483870967742,
				"ymag": 40,
				"zfar": 2000,
				"znear": 0.1
			}
		}
	],
	"materials": [
		{
			"pbrMetallicRoughness": {
				"baseColorFactor": [
					0.06274509803921569,
					0.34901960784313724,
					0.8784313725490196,
					1
				],
				"metallicFactor": 0,
				"roughnessFactor": 1
			},
			"name": "standard"
		},
		{
			"pbrMetallicRoughness": {
				"baseColorFactor": [
					0.8941176470588236,
					0.9607843137254902,
					0,
					1
				],
				"metallicFactor": 0,
				"roughnessFactor": 1
			},
			"name": "standard"
		},
		{
			"pbrMetallicRoughness": {
				"baseColorFactor": [
					0.9098039215686274,
					0.4117647058823529,
					0.4117647058823529,
					1
				],
				"metallicFactor": 0,
				"roughnessFactor": 1
			},
			"name": "standard"
		}
	],
	"extensionsUsed": [
		"KHR_lights_punctual"
	]
}