<?xml version="1.0" encoding="utf-8"?>
<!-- Generator: Adobe Illustrator 23.1.1, SVG Export Plug-In . SVG Version: 6.00 Build 0)  -->
<svg version="1.1" id="Ebene_1" xmlns="http://www.w3.org/2000/svg" xmlns:xlink="http://www.w3.org/1999/xlink" x="0px" y="0px"
	 viewBox="0 0 1633.34 1417.32" style="enable-background:new 0 0 1633.34 1417.32;" xml:space="preserve">
<g>
	<g>
		<path d="M325.09,1155.08c127.98,19.35,257.74,20.57,386.84,15.47c129.66-5.12,259-16.35,388.66-21.45
			c73.33-2.89,146.77-3.77,220.11-0.52c1.35,0.06,2.5-1.19,2.5-2.5c0.16-109.28,13.65-217.89,27.57-326.1
			c13.88-107.86,28.36-216,30.18-324.9c1.01-60.61-2.09-121.28-11.12-181.26c-0.18-1.17-1.4-1.71-2.41-1.84
			c-145.93-18.21-291.97-36.37-438.72-46.52c-72.45-5.01-145.05-8.05-217.68-8.13c-36.64-0.04-73.29,0.68-109.9,2.27
			c-36.62,1.6-73.06,4.73-109.6,7.37c-20.71,1.5-41.4,1.78-61.89-2.07c-19.49-3.66-38.45-9.7-57.9-13.57
			c-38.5-7.66-78.05-9.13-117.02-4.52c-1.51,0.18-2.97,1.47-2.41,3.16c25.16,75.91,42.05,154.51,50.12,234.08
			c4.01,39.54,5.89,79.29,5.6,119.03c-0.3,40.42-3.79,80.46-7.13,120.71c-1.89,22.81-3.12,45.79-1.16,68.64
			c1.97,22.98,8.37,46.28,2.67,69.21c-0.42,1.7,0.79,3,2.41,3.16c86.14,8.85,172.29,17.7,258.43,26.55
			c24.56,2.52,49.12,5.05,73.68,7.57c1.28,0.13,2.6-1.25,2.5-2.5c-8.58-112.07-17.15-224.99-6.25-337.22
			c3.11-32.03,7.89-63.87,14.6-95.34c0.26-1.24-0.36-2.81-1.75-3.08c-44.42-8.53-88.84-17.06-133.26-25.6
			c-1.59-0.31-3.14,0.69-3.16,2.41c-0.95,82.43-1.89,164.86-2.84,247.29c-0.27,23.29-0.53,46.58-0.8,69.86c-0.04,3.22,4.96,3.22,5,0
			c0.95-82.43,1.89-164.86,2.84-247.29c0.27-23.29,0.53-46.58,0.8-69.86c-1.05,0.8-2.11,1.61-3.16,2.41
			c44.42,8.53,88.84,17.06,133.26,25.6c-0.58-1.03-1.16-2.05-1.75-3.08c-23.63,110.87-22.37,224.91-15.41,337.49
			c1.99,32.15,4.43,64.28,6.89,96.4c0.83-0.83,1.67-1.67,2.5-2.5c-86.14-8.85-172.29-17.7-258.43-26.55
			c-24.56-2.52-49.12-5.05-73.68-7.57c0.8,1.05,1.61,2.11,2.41,3.16c4.86-19.55,1.28-39.24-1.22-58.85
			c-2.66-20.89-2.66-41.88-1.39-62.88c2.48-40.89,7.29-81.47,8.18-122.47c1.74-80.03-5.34-160.26-20.95-238.77
			c-8.84-44.46-20.46-88.33-34.72-131.35c-0.8,1.05-1.61,2.11-2.41,3.16c35.69-4.22,71.91-3.42,107.33,2.78
			c34.73,6.08,67.7,18.53,103.36,18.49c18.2-0.02,36.33-1.97,54.46-3.44c18.28-1.48,36.59-2.72,54.91-3.74
			c36.59-2.02,73.23-3.14,109.88-3.47c146.17-1.32,292.14,9.85,437.38,25.4c81.91,8.77,163.66,18.95,245.4,29.15
			c-0.8-0.61-1.61-1.22-2.41-1.84c16.17,107.39,12.59,216.47,2.21,324.24c-10.45,108.44-27.55,216.1-38.56,324.48
			c-6.15,60.55-10.36,121.33-10.44,182.21c0.83-0.83,1.67-1.67,2.5-2.5c-129.61-5.75-259.28,1.51-388.62,9.61
			c-129.16,8.09-258.49,17.07-387.98,14.54c-72.83-1.42-145.62-6.57-217.67-17.47C323.27,1149.79,321.92,1154.6,325.09,1155.08
			L325.09,1155.08z"/>
	</g>
</g>
<g>
	<g>
		<path d="M331.1,1042.53c51.54,4.69,103.17,8.32,154.86,10.88c51.69,2.55,103.43,4.03,155.17,4.44
			c29.07,0.23,58.15,0.11,87.22-0.33c1.38-0.02,2.46-1.13,2.5-2.5c1.4-51.83,3.05-103.65,4.94-155.46s4.04-103.61,6.44-155.41
			c1.35-29.21,2.78-58.41,4.29-87.61c-0.83,0.83-1.67,1.67-2.5,2.5c43.4-0.19,86.81-0.38,130.21-0.57
			c5.25-0.02,10.52-0.14,15.77-0.05c4.46,0.08,9.29,0.61,12.28,4.31c2.43,3.01,3.28,7.05,3.97,10.77
			c0.93,5.06,1.68,10.16,2.45,15.25c3.2,21.32,5.56,42.78,7.08,64.29c3.01,42.51,2.78,85.26-0.73,127.73
			c-0.39,4.72-0.34,9.88-1.6,14.47c-1.39,5.05-5.91,6.63-10.44,8.12c-9.82,3.23-19.83,5.87-29.96,7.91
			c-5.08,1.02-10.22,2.01-15.37,2.59c-4.57,0.51-9.67,0.63-13.53-2.27c-3.34-2.51-5.28-6.52-6.94-10.24
			c-1.98-4.45-3.78-8.99-5.54-13.53c-14.57-37.66-23.32-77.56-25.77-117.87c-0.31-5.04-0.51-10.09-0.62-15.14
			c-0.07-3.21-5.07-3.22-5,0c0.98,42.63,8.78,85.07,23.17,125.21c3.33,9.3,6.6,19.1,11.36,27.79c1.97,3.59,4.62,7.01,8.26,9.02
			c4.15,2.29,9,2.57,13.63,2.14c10.48-0.97,21-3.34,31.18-5.96c5.18-1.33,10.33-2.82,15.42-4.47c4.2-1.36,8.83-2.73,11.91-6.09
			c3-3.28,3.59-7.71,4-11.95c0.54-5.52,0.99-11.04,1.4-16.57c0.83-11.25,1.44-22.51,1.82-33.78c0.76-22.73,0.59-45.49-0.5-68.21
			c-1.09-22.53-3.08-45.01-5.99-67.37c-1.4-10.81-2.87-21.66-4.84-32.38c-1.55-8.4-5.21-16.24-14.34-18.11
			c-4.69-0.96-9.58-0.65-14.33-0.63c-5.84,0.03-11.68,0.05-17.52,0.08c-11.48,0.05-22.97,0.1-34.45,0.15
			c-22.97,0.1-45.94,0.2-68.9,0.3c-5.84,0.03-11.68,0.05-17.52,0.08c-1.4,0.01-2.43,1.14-2.5,2.5
			c-2.68,51.78-5.11,103.57-7.28,155.37s-4.11,103.61-5.79,155.43c-0.95,29.22-1.81,58.45-2.6,87.67c0.83-0.83,1.67-1.67,2.5-2.5
			c-51.74,0.79-103.5,0.52-155.24-0.83c-51.73-1.35-103.44-3.77-155.07-7.26c-29.01-1.96-57.99-4.27-86.94-6.9
			C327.9,1037.24,327.92,1042.24,331.1,1042.53L331.1,1042.53z"/>
	</g>
</g>
<g>
	<g>
		<path d="M782.83,913.22c-4.92,40.43-6.56,81.25-4.82,121.95c0.5,11.63,1.27,23.24,2.31,34.83c0.13,1.41,1.05,2.42,2.5,2.5
			c54.52,3.15,109.15,4.48,163.76,3.95c27.16-0.26,54.33-0.97,81.47-2.14c13.71-0.59,27.42-1.3,41.11-2.12
			c3.08-0.18,6.15-0.38,9.22-0.57c2.97-0.19,6.09-0.19,8.97-1.01c5.56-1.57,7.64-6.06,7.89-11.49c0.63-13.62,0.55-27.32,0.82-40.95
			c0.27-13.5,0.53-27,0.8-40.49c0.54-27.42,1.08-54.83,1.62-82.25c1.08-54.69,2.16-109.39,3.23-164.08c0.27-13.5,0.53-27,0.8-40.49
			c0.13-6.61,0.6-13.32,0.28-19.93c-0.26-5.22-1.66-10.41-5.79-13.92c-3.8-3.23-8.71-4.66-13.5-5.69
			c-6.64-1.43-13.34-2.58-20.06-3.54c-12.99-1.85-26.09-2.93-39.21-3.16c-6.59-0.11-13.17-0.01-19.75,0.28
			c-1.32,0.06-2.54,1.1-2.5,2.5c0.87,29.14,1.74,58.28,2.62,87.41c0.88,29.28,1.75,58.56,2.63,87.83
			c0.49,16.47,0.99,32.94,1.48,49.41c0.1,3.21,5.1,3.22,5,0c-0.87-29.14-1.74-58.28-2.62-87.41c-0.88-29.28-1.75-58.56-2.63-87.84
			c-0.49-16.47-0.99-32.94-1.48-49.41c-0.83,0.83-1.67,1.67-2.5,2.5c25.99-1.17,52.25,0.75,77.7,6.23
			c4.56,0.98,9.92,2.23,12.97,6.09c3.46,4.37,2.71,10.8,2.61,15.98c-0.26,13.22-0.52,26.43-0.78,39.65
			c-1.05,53.43-2.11,106.86-3.16,160.29c-1.05,53.15-2.09,106.3-3.14,159.44c-0.13,6.75-0.23,13.5-0.4,20.25
			c-0.06,2.28,0.02,5.21-1.89,6.82c-1.99,1.67-5.04,1.65-7.49,1.81c-13.13,0.86-26.28,1.6-39.42,2.24
			c-26.57,1.29-53.17,2.15-79.77,2.57c-53.21,0.84-106.44-0.07-159.58-2.72c-6.43-0.32-12.87-0.67-19.3-1.04
			c0.83,0.83,1.67,1.67,2.5,2.5c-3.62-40.57-3.94-81.42-0.91-122.04c0.87-11.6,2.02-23.19,3.42-34.74
			C788.22,910.04,783.21,910.06,782.83,913.22L782.83,913.22z"/>
	</g>
</g>
<g>
	<g>
		<path d="M1088.89,591.75c-41.33-8.51-83.25-14.09-125.37-16.62c-21.18-1.27-42.4-1.77-63.61-1.5c-20.04,0.26-40.02,1.7-60.05,2.35
			c-22.22,0.72-44.75-0.27-65.63-8.62c0.61,0.8,1.22,1.61,1.84,2.41c4.18-56.49,8.36-112.99,12.54-169.48
			c1.18-16.01,2.37-32.01,3.55-48.02c-0.83,0.83-1.67,1.67-2.5,2.5c60.73,6.56,121.6,11.78,182.56,15.6
			c60.96,3.83,122.01,6.28,183.08,7.35c34.29,0.6,68.6,0.77,102.89,0.51c-0.8-0.61-1.61-1.22-2.41-1.84
			c24.33,84.95,30.09,173.72,28.81,261.7c-0.64,44.01-3,87.98-5.68,131.91c-2.78,45.65-5.7,91.29-8.56,136.94
			c-3.24,51.74-6.48,103.47-9.72,155.21c0.83-0.83,1.67-1.67,2.5-2.5c-15.26-1.57-30.53-3.15-45.79-4.72
			c-6-0.62-13.37-0.92-17.35-6.15c-3.95-5.21-4.2-13.16-5.19-19.37c-4.69-29.52-8.72-59.14-12.07-88.84
			c-6.73-59.62-10.79-119.53-12.16-179.51c-1.37-59.75-0.07-119.56,3.89-179.19c1-15.02,2.17-30.04,3.5-45.03
			c0.66-7.38,1.36-14.76,2.1-22.14c0.61-6.06,1.66-12.27,0.91-18.37c-0.63-5.1-2.78-9.77-7.07-12.79c-4.32-3.04-9.8-3.74-14.94-4.13
			c-15.06-1.14-30.17-1.86-45.26-2.66c-60.65-3.22-121.37-5.1-182.1-5.65c-7.53-0.07-15.07-0.11-22.6-0.14c-3.22-0.01-3.22,4.99,0,5
			c60.73,0.23,121.46,1.77,182.12,4.66c15.28,0.73,30.56,1.54,45.84,2.43c7.5,0.44,15.02,0.79,22.51,1.4
			c5.78,0.47,12.38,1.66,15.18,7.41c2.55,5.23,1.55,11.75,0.98,17.3c-0.76,7.37-1.48,14.75-2.16,22.13
			c-1.38,14.99-2.59,30-3.63,45.02c-4.13,59.62-5.59,119.42-4.39,179.18c1.21,59.98,5.1,119.91,11.67,179.54
			c3.24,29.46,7.14,58.86,11.68,88.15c1.05,6.77,1.74,13.76,3.48,20.4c1.41,5.38,4.22,10.26,9.29,12.91
			c5.04,2.63,10.93,2.94,16.47,3.51c7.51,0.77,15.03,1.55,22.54,2.32s15.03,1.55,22.54,2.32c1.4,0.14,2.42-1.27,2.5-2.5
			c5.79-92.47,11.62-184.93,17.37-277.4c5.48-88.03,10.41-176.54,3.13-264.63c-4.05-49.01-11.98-97.75-25.52-145.06
			c-0.3-1.05-1.31-1.84-2.41-1.84c-61.08,0.46-122.17-0.43-183.21-2.71c-61.04-2.28-122.02-5.94-182.9-10.97
			c-34.18-2.83-68.33-6.09-102.43-9.78c-1.41-0.15-2.41,1.27-2.5,2.5c-4.18,56.49-8.36,112.99-12.54,169.48
			c-1.18,16.01-2.37,32.01-3.55,48.02c-0.09,1.18,0.86,2.02,1.84,2.41c37.04,14.83,78.61,7.56,117.32,6.63
			c41.96-1,83.99,1.02,125.65,6.04c24.05,2.9,47.96,6.84,71.69,11.72C1090.7,597.22,1092.04,592.4,1088.89,591.75L1088.89,591.75z"
			/>
	</g>
</g>
<g>
	<g>
		<path d="M400.48,746.92c-5.93-25.6-7.77-51.89-7.48-78.11c0.29-26.31,2.65-52.53,5.06-78.71c2.45-26.63,4.69-53.26,5.72-79.99
			c1.03-26.87,1.07-53.78,0.14-80.65c-0.94-27.01-2.86-53.98-5.78-80.85c-0.36-3.34-0.74-6.68-1.13-10.02
			c-0.83,0.83-1.67,1.67-2.5,2.5c33.86-0.89,67.75-0.39,101.56,1.52c33.99,1.92,67.91,5.24,101.62,9.99
			c18.88,2.66,37.7,5.77,56.44,9.31c3.14,0.59,4.49-4.22,1.33-4.82c-33.5-6.32-67.26-11.26-101.17-14.8
			c-33.95-3.54-68.05-5.67-102.18-6.37c-19.2-0.39-38.4-0.33-57.6,0.17c-1.23,0.03-2.66,1.13-2.5,2.5
			c3.15,26.84,5.33,53.8,6.51,80.8c1.19,27.13,1.38,54.31,0.57,81.46c-0.8,26.8-2.76,53.52-5.2,80.21
			c-2.41,26.33-4.99,52.68-5.72,79.13c-0.72,26.25,0.44,52.65,5.45,78.48c0.62,3.21,1.31,6.4,2.04,9.59
			C396.38,751.38,401.21,750.06,400.48,746.92L400.48,746.92z"/>
	</g>
</g>
</svg>
